<?xml version="1.0" encoding="iso-8859-1"?>
<!-- Generator: Adobe Illustrator 19.0.0, SVG Export Plug-In . SVG Version: 6.00 Build 0)  -->
<svg version="1.1" id="Capa_1" xmlns="http://www.w3.org/2000/svg" xmlns:xlink="http://www.w3.org/1999/xlink" x="0px" y="0px"
	 viewBox="0 0 511.997 511.997" style="enable-background:new 0 0 511.997 511.997;" xml:space="preserve">
<path style="fill:#87CED9;" d="M46.047,281.316c-18.631-5.968-28.895-25.902-22.935-44.533c0.151-0.478,0.319-0.956,0.496-1.435
	L67.477,96.703c4.755-13.584,19.464-20.916,33.172-16.533l392.871,125.744c13.956,4.463,21.66,19.384,17.223,33.349l-47.313,126.78
	c-6.615,17.719-25.972,27.115-43.984,21.35L46.047,281.316z"/>
<path style="fill:#4398D1;" d="M493.519,205.896L100.648,80.152c-13.717-4.383-28.425,2.958-33.172,16.55l-9.147,26.158
	l442.54,142.835l9.874-26.451C515.179,225.289,507.475,210.368,493.519,205.896z"/>
<g>
	
		<rect x="364.311" y="172.539" transform="matrix(-0.3193 0.9477 -0.9477 -0.3193 664.2141 -114.3231)" style="fill:#126099;" width="17.711" height="17.711"/>
	
		<rect x="353.003" y="206.115" transform="matrix(-0.3193 0.9477 -0.9477 -0.3193 681.114 -59.3102)" style="fill:#126099;" width="17.711" height="17.711"/>
</g>
<g>
	
		<rect x="116.5" y="142.193" transform="matrix(-0.3193 0.9476 -0.9476 -0.3193 337.8863 121.3793)" style="fill:#4398D1;" width="17.701" height="79.693"/>
	
		<rect x="209.034" y="190.889" transform="matrix(-0.3243 0.946 -0.946 -0.3243 490.3354 76.3764)" style="fill:#4398D1;" width="17.711" height="44.854"/>
</g>
<path style="fill:#87CED9;" d="M35.421,220.587h407.34c19.561,0,35.421,15.86,35.421,35.421v141.684
	c0,19.561-15.86,35.421-35.421,35.421H35.421C15.86,433.112,0,417.253,0,397.691V256.008C0,236.447,15.86,220.587,35.421,220.587z"
	/>
<path style="fill:#71C4D1;" d="M442.761,433.112c19.561,0,35.421-15.86,35.421-35.421V256.008
	c-0.027-13.487-7.731-25.778-19.862-31.675c-124.071,107.83-284.571,174.288-386.22,208.78H442.761z"/>
<g>
	<rect x="416.195" y="309.139" style="fill:#4398D1;" width="35.421" height="17.71"/>
	<rect x="416.195" y="344.56" style="fill:#4398D1;" width="35.421" height="17.71"/>
	<rect x="416.195" y="379.981" style="fill:#4398D1;" width="35.421" height="17.71"/>
	<rect x="345.354" y="309.139" style="fill:#4398D1;" width="53.131" height="17.71"/>
	<rect x="345.354" y="344.56" style="fill:#4398D1;" width="35.421" height="17.71"/>
	<rect x="345.354" y="379.981" style="fill:#4398D1;" width="53.131" height="17.71"/>
	<rect x="159.394" y="309.139" style="fill:#4398D1;" width="115.118" height="17.71"/>
	<rect x="159.394" y="344.56" style="fill:#4398D1;" width="115.118" height="17.71"/>
	<rect x="159.394" y="379.981" style="fill:#4398D1;" width="79.697" height="17.71"/>
</g>
<polygon style="fill:#DE4C3C;" points="132.828,344.56 101.835,344.56 77.926,312.681 63.758,323.308 79.697,344.56 53.131,344.56 
	53.131,335.705 35.421,335.705 35.421,362.271 79.697,362.271 63.758,383.523 77.926,394.149 101.835,362.271 132.828,362.271 "/>
<path style="fill:#4398D1;" d="M442.761,220.587H35.421C15.86,220.587,0,236.447,0,256.008v26.566h478.182v-26.566
	C478.182,236.447,462.322,220.587,442.761,220.587z"/>
<g>
	<rect x="309.933" y="229.442" style="fill:#126099;" width="17.71" height="17.71"/>
	<rect x="309.933" y="264.863" style="fill:#126099;" width="17.71" height="17.71"/>
	<rect x="309.933" y="300.284" style="fill:#126099;" width="17.71" height="17.71"/>
	<rect x="309.933" y="335.705" style="fill:#126099;" width="17.71" height="17.71"/>
	<rect x="309.933" y="371.126" style="fill:#126099;" width="17.71" height="17.71"/>
	<rect x="309.933" y="406.547" style="fill:#126099;" width="17.71" height="17.71"/>
</g>
<g>
</g>
<g>
</g>
<g>
</g>
<g>
</g>
<g>
</g>
<g>
</g>
<g>
</g>
<g>
</g>
<g>
</g>
<g>
</g>
<g>
</g>
<g>
</g>
<g>
</g>
<g>
</g>
<g>
</g>
</svg>
