<?xml version="1.0" encoding="iso-8859-1"?>
<!-- Generator: Adobe Illustrator 19.0.0, SVG Export Plug-In . SVG Version: 6.00 Build 0)  -->
<svg version="1.1" id="Capa_1" xmlns="http://www.w3.org/2000/svg" xmlns:xlink="http://www.w3.org/1999/xlink" x="0px" y="0px"
	 viewBox="0 0 512 512" style="enable-background:new 0 0 512 512;" xml:space="preserve">
<path style="fill:#4398D1;" d="M441.438,392.533H8.533V170.667h313.515c39.373,0,76.826,16.998,102.75,46.626l63.309,72.371
	c9.899,11.307,15.36,25.813,15.36,40.841l0,0c0.009,34.253-27.759,62.02-62.012,62.029
	C441.446,392.533,441.446,392.533,441.438,392.533z"/>
<path style="fill:#3E8CC7;" d="M488.107,289.664l-63.326-72.371c-4.565-5.12-9.506-9.89-14.78-14.268
	C297.813,300.578,121.728,343.799,8.533,362.334v30.199h432.905c34.261-0.009,62.02-27.793,62.012-62.046
	C503.441,315.469,497.997,300.962,488.107,289.664z"/>
<g>
	<rect y="452.267" style="fill:#87CED9;" width="512" height="17.067"/>
	<rect y="486.4" style="fill:#87CED9;" width="512" height="17.067"/>
	<rect x="187.733" y="136.533" style="fill:#87CED9;" width="136.533" height="34.133"/>
	<rect y="42.667" style="fill:#87CED9;" width="512" height="17.067"/>
	<path style="fill:#87CED9;" d="M264.533,158.959l-81.758-58.146c-3.84-2.739-4.727-8.064-1.988-11.904
		c0.546-0.768,1.22-1.442,1.988-1.988l59.733-42.667l9.916,13.892l-50.005,35.721l72.03,51.2L264.533,158.959z"/>
	<path style="fill:#87CED9;" d="M247.467,158.959l-9.916-13.892l72.03-51.2l-50.005-35.721l9.916-13.892l59.733,42.667
		c3.84,2.739,4.727,8.064,1.988,11.904c-0.546,0.768-1.22,1.442-1.988,1.988L247.467,158.959z"/>
	<rect y="8.533" style="fill:#87CED9;" width="512" height="17.067"/>
</g>
<g>
	<circle style="fill:#E5E5E5;" cx="443.733" cy="341.333" r="17.067"/>
	<circle style="fill:#E5E5E5;" cx="349.867" cy="341.333" r="17.067"/>
</g>
<g>
	<rect x="8.533" y="315.733" style="fill:#DE4C3C;" width="290.133" height="17.067"/>
	<rect x="8.533" y="349.867" style="fill:#DE4C3C;" width="290.133" height="17.067"/>
</g>
<g>
	<circle style="fill:#3E8CC7;" cx="42.667" cy="426.667" r="34.133"/>
	<circle style="fill:#3E8CC7;" cx="145.067" cy="426.667" r="34.133"/>
	<circle style="fill:#3E8CC7;" cx="324.267" cy="426.667" r="34.133"/>
	<circle style="fill:#3E8CC7;" cx="426.667" cy="426.667" r="34.133"/>
</g>
<g>
	<path style="fill:#87CED9;" d="M139.947,213.333h27.307c6.596,0,11.947,5.35,11.947,11.947v52.907
		c0,6.596-5.35,11.947-11.947,11.947h-27.307c-6.596,0-11.947-5.35-11.947-11.947V225.28
		C128,218.684,133.35,213.333,139.947,213.333z"/>
	<path style="fill:#87CED9;" d="M54.613,213.333H81.92c6.596,0,11.947,5.35,11.947,11.947v52.907c0,6.596-5.35,11.947-11.947,11.947
		H54.613c-6.596,0-11.947-5.35-11.947-11.947V225.28C42.667,218.684,48.017,213.333,54.613,213.333z"/>
	<path style="fill:#87CED9;" d="M225.28,213.333h27.307c6.596,0,11.947,5.35,11.947,11.947v52.907
		c0,6.596-5.35,11.947-11.947,11.947H225.28c-6.596,0-11.947-5.35-11.947-11.947V225.28
		C213.333,218.684,218.684,213.333,225.28,213.333z"/>
	<path style="fill:#87CED9;" d="M300.689,231.91l31.258,46.822c4.745,7.108,12.715,11.392,21.265,11.401h135.287
		c-0.137-0.154-0.247-0.324-0.375-0.469l-63.326-72.371c-1.22-1.399-2.56-2.62-3.857-3.959H310.613
		c-6.596,0.009-11.938,5.359-11.93,11.964C298.684,227.652,299.383,229.948,300.689,231.91z"/>
</g>
<g>
	<rect x="42.667" y="418.133" style="fill:#126099;" width="102.4" height="17.067"/>
	<rect x="324.267" y="418.133" style="fill:#126099;" width="102.4" height="17.067"/>
</g>
<g>
</g>
<g>
</g>
<g>
</g>
<g>
</g>
<g>
</g>
<g>
</g>
<g>
</g>
<g>
</g>
<g>
</g>
<g>
</g>
<g>
</g>
<g>
</g>
<g>
</g>
<g>
</g>
<g>
</g>
</svg>
