<?xml version="1.0" encoding="iso-8859-1"?>
<!-- Generator: Adobe Illustrator 19.0.0, SVG Export Plug-In . SVG Version: 6.00 Build 0)  -->
<svg version="1.1" id="Capa_1" xmlns="http://www.w3.org/2000/svg" xmlns:xlink="http://www.w3.org/1999/xlink" x="0px" y="0px"
	 viewBox="0 0 512 512" style="enable-background:new 0 0 512 512;" xml:space="preserve">
<path style="fill:#71C4D1;" d="M503.467,294.4c-16.247-12.356-38.741-12.356-54.989,0c-16.247,12.356-38.75,12.356-54.997,0l0,0
	c-16.247-12.356-38.741-12.356-54.989,0c-16.247,12.356-38.75,12.356-54.997,0c-16.247-12.356-38.741-12.356-54.989,0
	c-16.247,12.356-38.75,12.356-54.997,0c-16.247-12.356-38.741-12.356-54.989,0l0,0c-16.247,12.356-38.75,12.356-54.997,0
	c-16.247-12.356-38.741-12.356-54.989,0L0,300.169v203.298h512V300.732L503.467,294.4z"/>
<path style="fill:#3E8CC7;" d="M63.522,294.4c16.247,12.356,38.75,12.356,54.997,0l0,0c16.247-12.356,38.741-12.356,54.989,0
	c16.247,12.356,38.75,12.356,54.997,0c16.247-12.356,38.741-12.356,54.989,0c16.247,12.356,38.75,12.356,54.997,0
	c16.247-12.356,38.741-12.356,54.989,0l0,0c16.247,12.356,38.75,12.356,54.997,0c16.247-12.356,38.741-12.356,54.989,0l8.533,6.332
	V145.067H0v155.102l8.533-5.769C24.781,282.044,47.275,282.044,63.522,294.4z"/>
<rect y="136.533" style="fill:#4398D1;" width="512" height="17.067"/>
<path style="fill:#CFCFCF;" d="M426.667,8.533c-28.262,0.026-51.174,22.938-51.2,51.2v128H256v-128
	c0-18.85,15.283-34.133,34.133-34.133c18.85,0,34.133,15.283,34.133,34.133v76.8h17.067v-76.8c0-28.279-22.921-51.2-51.2-51.2
	c-28.279,0-51.2,22.921-51.2,51.2v230.4H256V256h119.467v34.133h17.067v-230.4c0-18.85,15.283-34.133,34.133-34.133
	S460.8,40.883,460.8,59.733v76.8h17.067v-76.8C477.841,31.471,454.929,8.559,426.667,8.533z M256,238.933V204.8h119.467v34.133H256z
	"/>
<g>
	<path style="fill:#87CED9;" d="M508.698,466.859c-19.337-14.72-46.114-14.72-65.451,0c-13.158,10.018-31.377,10.018-44.535,0
		c-19.337-14.72-46.123-14.72-65.459,0c-13.158,10.01-31.369,10.01-44.527,0c-19.337-14.72-46.114-14.72-65.451,0
		c-13.158,10.018-31.377,10.018-44.535,0c-19.337-14.72-46.123-14.72-65.459,0c-13.158,10.01-31.369,10.01-44.527,0
		c-19.217-14.677-45.85-14.763-65.161-0.213L0,469.205v20.924l13.764-9.788c13.158-10.001,31.377-10.001,44.535,0
		c19.328,14.72,46.114,14.72,65.442,0c13.15-10.018,31.386-10.018,44.535,0c19.337,14.72,46.123,14.72,65.459,0
		c13.158-10.001,31.369-10.001,44.527,0c19.337,14.72,46.114,14.72,65.451,0c13.15-10.018,31.386-10.018,44.535,0
		c19.328,14.729,46.123,14.729,65.451,0c13.278-10.044,31.642-9.958,44.826,0.213L512,490.121v-20.924L508.698,466.859z"/>
	<path style="fill:#87CED9;" d="M508.698,407.125c-19.337-14.72-46.114-14.72-65.451,0c-13.158,10.018-31.377,10.018-44.535,0
		c-19.337-14.72-46.123-14.72-65.459,0c-13.158,10.01-31.369,10.01-44.527,0c-19.337-14.72-46.114-14.72-65.451,0
		c-13.158,10.018-31.377,10.018-44.535,0c-19.337-14.72-46.123-14.72-65.459,0c-13.158,10.01-31.369,10.01-44.527,0
		c-19.439-14.763-46.353-14.677-65.707,0.196L0,409.882v22.281l13.764-11.554c13.158-10.001,31.377-10.001,44.535,0
		c19.328,14.72,46.114,14.72,65.442,0c13.158-10.018,31.377-10.018,44.535,0c19.337,14.72,46.123,14.72,65.459,0
		c13.158-10.001,31.369-10.001,44.527,0c19.337,14.72,46.114,14.72,65.451,0c13.158-10.018,31.377-10.018,44.535,0
		c19.328,14.729,46.123,14.729,65.451,0c13.056-9.967,31.138-10.044,44.279-0.196l14.02,11.75V409.89L508.698,407.125z"/>
	<path style="fill:#87CED9;" d="M508.698,347.392c-19.337-14.72-46.114-14.72-65.451,0c-13.158,10.018-31.377,10.018-44.535,0
		c-19.337-14.72-46.123-14.72-65.459,0c-13.15,10.018-31.377,10.018-44.527,0c-19.337-14.72-46.114-14.72-65.451,0
		c-13.158,10.018-31.377,10.018-44.535,0c-19.337-14.72-46.123-14.72-65.459,0c-13.15,10.018-31.377,10.018-44.527,0
		c-19.285-14.703-46.012-14.737-65.34-0.085L0,349.867v21.248l13.764-10.24c13.158-10.001,31.377-10.001,44.535,0
		c19.328,14.72,46.114,14.72,65.442,0c13.15-10.018,31.386-10.018,44.535,0c19.337,14.72,46.123,14.72,65.459,0
		c13.158-10.001,31.369-10.001,44.527,0c19.337,14.72,46.114,14.72,65.451,0c13.15-10.018,31.386-10.018,44.535,0
		c19.328,14.729,46.123,14.729,65.451,0c13.21-10.018,31.479-9.984,44.646,0.085L512,371.089v-21.222L508.698,347.392z"/>
	<path style="fill:#87CED9;" d="M508.698,287.659c-19.337-14.72-46.114-14.72-65.451,0c-13.158,10.018-31.377,10.018-44.535,0
		c-19.337-14.72-46.123-14.72-65.459,0c-13.15,10.018-31.377,10.018-44.527,0c-19.337-14.72-46.114-14.72-65.451,0
		c-13.158,10.018-31.377,10.018-44.535,0c-19.337-14.72-46.123-14.72-65.459,0c-13.15,10.018-31.377,10.018-44.527,0
		c-19.388-14.729-46.234-14.686-65.579,0.102L0,290.321v21.922l13.764-11.093c13.158-10.001,31.377-10.001,44.535,0
		c19.328,14.72,46.114,14.72,65.442,0c13.15-10.035,31.386-10.035,44.535,0c19.337,14.72,46.123,14.72,65.459,0
		c13.158-10.001,31.369-10.001,44.527,0c19.337,14.72,46.114,14.72,65.451,0c13.15-10.035,31.386-10.035,44.535,0
		c19.328,14.729,46.123,14.729,65.451,0c13.099-9.975,31.232-10.018,44.373-0.102L512,312.243v-21.922L508.698,287.659z"/>
</g>
<g>
</g>
<g>
</g>
<g>
</g>
<g>
</g>
<g>
</g>
<g>
</g>
<g>
</g>
<g>
</g>
<g>
</g>
<g>
</g>
<g>
</g>
<g>
</g>
<g>
</g>
<g>
</g>
<g>
</g>
</svg>
