<?xml version="1.0" encoding="iso-8859-1"?>
<!-- Generator: Adobe Illustrator 19.0.0, SVG Export Plug-In . SVG Version: 6.00 Build 0)  -->
<svg version="1.1" id="Capa_1" xmlns="http://www.w3.org/2000/svg" xmlns:xlink="http://www.w3.org/1999/xlink" x="0px" y="0px"
	 viewBox="0 0 512 512" style="enable-background:new 0 0 512 512;" xml:space="preserve">
<g>
	<path style="fill:#4398D1;" d="M120.849,477.867h-10.342c-27.042,0-52.983-10.743-72.107-29.867l0,0
		c-19.123-19.123-29.867-45.065-29.867-72.107v-34.56c0-18.85,15.283-34.133,34.133-34.133h154.633
		c18.85,0,34.133,15.283,34.133,34.133c0,2.244-0.222,4.489-0.666,6.69l-9.506,47.522
		C211.686,443.409,169.66,477.867,120.849,477.867z"/>
	<path style="fill:#4398D1;" d="M391.151,477.867h10.342c27.042,0,52.983-10.743,72.107-29.867l0,0
		c19.123-19.123,29.867-45.065,29.867-72.107v-34.56c0-18.85-15.283-34.133-34.133-34.133H314.701
		c-18.85,0-34.133,15.283-34.133,34.133c0,2.244,0.222,4.489,0.666,6.69l9.506,47.522
		C300.314,443.409,342.34,477.867,391.151,477.867z"/>
</g>
<g>
	<path style="fill:#3E8CC7;" d="M230.767,348.023c3.695-18.483-8.294-36.463-26.778-40.158c-2.202-0.444-4.446-0.666-6.69-0.666
		h-40.858L28.006,435.635c18.987,26.675,49.766,42.428,82.5,42.231h10.342c48.811,0,90.837-34.458,100.412-82.321L230.767,348.023z"
		/>
	<path style="fill:#3E8CC7;" d="M469.333,307.2h-44.8L303.437,428.297c18.526,30.763,51.806,49.57,87.714,49.57h10.342
		c56.32,0,101.973-45.653,101.973-101.973l0,0v-34.56C503.467,322.483,488.184,307.2,469.333,307.2z"/>
</g>
<path style="fill:#87CED9;" d="M512,98.133c0-40.055-32.478-72.533-72.533-72.533s-72.533,32.478-72.533,72.533v21.333H384V98.133
	c0-30.635,24.832-55.467,55.467-55.467s55.467,24.832,55.467,55.467v209.289c-7.339-5.649-16.341-8.721-25.6-8.755H42.667
	c-9.259,0.034-18.261,3.106-25.6,8.755V98.133c0-30.635,24.832-55.467,55.467-55.467S128,67.499,128,98.133v21.333h17.067V98.133
	c0-40.055-32.478-72.533-72.533-72.533S0,58.078,0,98.133V332.8h0.853C0.282,335.607,0,338.466,0,341.333v34.56
	C0,436.924,49.476,486.4,110.507,486.4l0,0h10.342c52.838-0.119,98.304-37.385,108.783-89.173l6.059-30.293h40.619l6.059,30.293
	c10.479,51.789,55.945,89.054,108.783,89.173h10.342C462.524,486.4,512,436.924,512,375.893l0,0v-34.56
	c0-2.867-0.282-5.726-0.853-8.533H512V98.133z M222.396,346.351l-9.498,47.522c-8.866,43.827-47.334,75.366-92.049,75.46h-10.342
	c-51.601,0.009-93.431-41.822-93.44-93.423c0-0.009,0-0.009,0-0.017v-34.56c0-14.14,11.46-25.6,25.6-25.6h154.633
	c14.14,0,25.6,11.469,25.591,25.609C222.891,343.023,222.729,344.704,222.396,346.351z M239.104,349.867v-0.171
	c2.398-11.904-0.418-24.277-7.748-33.963h49.289c-7.339,9.685-10.163,22.05-7.774,33.963v0.171H239.104z M494.933,375.893
	c0.009,51.601-41.822,93.431-93.423,93.44c-0.009,0-0.009,0-0.017,0h-10.342c-44.715-0.094-83.183-31.633-92.049-75.46
	l-9.506-47.522c-2.773-13.867,6.221-27.349,20.087-30.123c1.647-0.333,3.336-0.495,5.018-0.495h154.633
	c14.14,0,25.6,11.46,25.6,25.6V375.893z"/>
<g>
</g>
<g>
</g>
<g>
</g>
<g>
</g>
<g>
</g>
<g>
</g>
<g>
</g>
<g>
</g>
<g>
</g>
<g>
</g>
<g>
</g>
<g>
</g>
<g>
</g>
<g>
</g>
<g>
</g>
</svg>
