<?xml version="1.0" encoding="iso-8859-1"?>
<!-- Generator: Adobe Illustrator 19.0.0, SVG Export Plug-In . SVG Version: 6.00 Build 0)  -->
<svg version="1.1" id="Capa_1" xmlns="http://www.w3.org/2000/svg" xmlns:xlink="http://www.w3.org/1999/xlink" x="0px" y="0px"
	 viewBox="0 0 512 512" style="enable-background:new 0 0 512 512;" xml:space="preserve">
<path style="fill:#DE4C3C;" d="M282.483,467.862h150.069c19.5,0,35.31-15.81,35.31-35.31V88.276l-17.655-17.655V0l0,0
	C484.334,0,512,27.666,512,61.793v379.586c0,39-31.62,70.621-70.621,70.621H282.483V467.862z"/>
<g>
	<path style="fill:#FDB62F;" d="M308.966,388.414h-35.31l8.828,35.31h23.402c2.03-5.667,3.072-11.635,3.081-17.655V388.414z"/>
	<path style="fill:#FDB62F;" d="M238.345,388.414h-35.31v17.655c0.009,6.02,1.05,11.988,3.081,17.655h23.402L238.345,388.414z"/>
	<path style="fill:#FDB62F;" d="M361.931,353.103L361.931,353.103c-32.212,0-61.396-18.97-74.478-48.402l-6.63-14.91
		c-4.361-9.816-14.089-16.137-24.823-16.137l0,0c-10.734,0-20.462,6.321-24.823,16.137l-6.63,14.91
		c-13.082,29.431-42.266,48.402-74.478,48.402l0,0c-58.5,0-105.931-47.431-105.931-105.931v-17.655
		c0-58.5,47.431-105.931,105.931-105.931h211.862c58.5,0,105.931,47.431,105.931,105.931v17.655
		C467.862,305.673,420.431,353.103,361.931,353.103z"/>
</g>
<path style="fill:#4398D1;" d="M361.931,317.793c-18.247-0.018-34.781-10.761-42.205-27.427l-6.63-14.919
	c-14.018-31.532-50.935-45.736-82.476-31.718c-14.133,6.285-25.441,17.585-31.718,31.718l-6.63,14.91
	c-7.415,16.675-23.958,27.427-42.205,27.436c-38.983-0.044-70.577-31.638-70.621-70.621v-17.655
	c0.044-38.983,31.638-70.577,70.621-70.621h211.862c38.983,0.044,70.577,31.638,70.621,70.621v17.655
	C432.508,286.155,400.914,317.749,361.931,317.793z"/>
<g>
	<rect y="203.034" style="fill:#FDB62F;" width="61.793" height="52.966"/>
	<rect x="459.034" y="203.034" style="fill:#FDB62F;" width="52.966" height="52.966"/>
	<path style="fill:#FDB62F;" d="M256,467.862c-34.11-0.035-61.758-27.683-61.793-61.793v-17.655h17.655v17.655
		c0,24.373,19.765,44.138,44.138,44.138s44.138-19.765,44.138-44.138v-17.655h17.655v17.655
		C317.758,440.179,290.11,467.827,256,467.862z"/>
	<path style="fill:#FDB62F;" d="M229.517,451.893v33.624C229.517,500.145,241.373,512,256,512l0,0h26.483v-60.107
		C266.108,461.418,245.892,461.418,229.517,451.893z"/>
</g>
<g>
	<path style="fill:#3E8CC7;" d="M450.383,462.866l34.251,34.251c4.661-3.619,8.863-7.821,12.482-12.482l-34.251-34.251
		C459.829,455.539,455.539,459.829,450.383,462.866z"/>
	<path style="fill:#3E8CC7;" d="M432.552,512h8.828c2.948-0.018,5.897-0.221,8.828-0.609v-48.428
		c-5.341,3.178-11.441,4.864-17.655,4.899V512z"/>
	<path style="fill:#3E8CC7;" d="M462.963,450.207h48.428c0.388-2.931,0.591-5.879,0.609-8.828v-8.828h-44.138
		C467.827,438.766,466.141,444.866,462.963,450.207z"/>
	<rect x="388.414" y="467.862" style="fill:#3E8CC7;" width="17.655" height="44.138"/>
	<rect x="467.862" y="388.414" style="fill:#3E8CC7;" width="44.138" height="17.655"/>
	<path style="fill:#3E8CC7;" d="M361.931,158.897h-58.209L105.56,301.903c12.553,10.275,28.284,15.89,44.509,15.89
		c18.247-0.009,34.79-10.761,42.205-27.436l6.63-14.91c14.018-31.532,50.935-45.736,82.476-31.718
		c14.133,6.285,25.441,17.585,31.717,31.718l6.63,14.919c7.424,16.666,23.958,27.41,42.205,27.427
		c38.983-0.044,70.577-31.638,70.621-70.621v-17.655C432.508,190.535,400.914,158.941,361.931,158.897z"/>
</g>
<g>
</g>
<g>
</g>
<g>
</g>
<g>
</g>
<g>
</g>
<g>
</g>
<g>
</g>
<g>
</g>
<g>
</g>
<g>
</g>
<g>
</g>
<g>
</g>
<g>
</g>
<g>
</g>
<g>
</g>
</svg>
