<?xml version="1.0" encoding="iso-8859-1"?>
<!-- Generator: Adobe Illustrator 19.0.0, SVG Export Plug-In . SVG Version: 6.00 Build 0)  -->
<svg version="1.1" id="Capa_1" xmlns="http://www.w3.org/2000/svg" xmlns:xlink="http://www.w3.org/1999/xlink" x="0px" y="0px"
	 viewBox="0 0 512 512" style="enable-background:new 0 0 512 512;" xml:space="preserve">
<g>
	<path style="fill:#CFCFCF;" d="M40.525,507.733c-4.71,0-8.533-3.814-8.533-8.533c0-0.913,0.145-1.826,0.435-2.697l25.6-76.8
		c1.493-4.48,6.323-6.903,10.803-5.41s6.903,6.323,5.41,10.803l-25.6,76.8C47.479,505.387,44.203,507.742,40.525,507.733z"/>
	<path style="fill:#CFCFCF;" d="M168.525,507.733c-3.678,0-6.938-2.347-8.098-5.837l-25.6-76.8c-1.493-4.48,0.93-9.31,5.41-10.803
		c4.48-1.493,9.31,0.93,10.803,5.41l25.6,76.8c1.493,4.471-0.93,9.301-5.402,10.795
		C170.368,507.588,169.446,507.733,168.525,507.733z"/>
	<rect x="136.533" y="311.467" style="fill:#CFCFCF;" width="238.933" height="34.133"/>
	<rect x="238.933" y="345.6" style="fill:#CFCFCF;" width="34.133" height="153.6"/>
</g>
<path style="fill:#71C4D1;" d="M221.867,72.533h68.267l0,0v25.6c0,18.85-15.283,34.133-34.133,34.133l0,0
	c-18.85,0-34.133-15.283-34.133-34.133V72.533L221.867,72.533z"/>
<path style="fill:#3E8CC7;" d="M153.6,72.533h68.267l0,0v25.6c0,18.85-15.283,34.133-34.133,34.133l0,0
	c-18.85,0-34.133-15.283-34.133-34.133V72.533L153.6,72.533z"/>
<path style="fill:#71C4D1;" d="M85.333,72.533H153.6l0,0v25.6c0,18.85-15.283,34.133-34.133,34.133l0,0
	c-18.85,0-34.133-15.283-34.133-34.133V72.533L85.333,72.533z"/>
<g>
	<path style="fill:#3E8CC7;" d="M17.067,72.533h68.267l0,0v25.6c0,18.85-15.283,34.133-34.133,34.133l0,0
		c-18.85,0-34.133-15.283-34.133-34.133V72.533L17.067,72.533z"/>
	<path style="fill:#3E8CC7;" d="M290.133,72.533H358.4l0,0v25.6c0,18.85-15.283,34.133-34.133,34.133l0,0
		c-18.85,0-34.133-15.283-34.133-34.133V72.533L290.133,72.533z"/>
</g>
<path style="fill:#71C4D1;" d="M358.4,72.533h68.267l0,0v25.6c0,18.85-15.283,34.133-34.133,34.133l0,0
	c-18.85,0-34.133-15.283-34.133-34.133V72.533L358.4,72.533z"/>
<path style="fill:#3E8CC7;" d="M426.667,72.533h68.267l0,0v25.6c0,18.85-15.283,34.133-34.133,34.133l0,0
	c-18.85,0-34.133-15.283-34.133-34.133V72.533L426.667,72.533z"/>
<polygon style="fill:#4398D1;" points="477.867,4.267 418.133,4.267 426.667,72.533 494.933,72.533 "/>
<polygon style="fill:#87CED9;" points="93.867,4.267 85.333,72.533 153.6,72.533 153.6,4.267 "/>
<g>
	<polygon style="fill:#4398D1;" points="34.133,4.267 17.067,72.533 85.333,72.533 93.867,4.267 	"/>
	<rect x="153.6" y="4.267" style="fill:#4398D1;" width="68.267" height="68.267"/>
</g>
<g>
	<polygon style="fill:#87CED9;" points="358.4,4.267 358.4,72.533 426.667,72.533 418.133,4.267 	"/>
	<rect x="221.867" y="4.267" style="fill:#87CED9;" width="68.267" height="68.267"/>
</g>
<rect x="290.133" y="4.267" style="fill:#4398D1;" width="68.267" height="68.267"/>
<g>
	<path style="fill:#CFCFCF;" d="M471.475,507.733c-3.678,0-6.938-2.347-8.098-5.837l-25.6-76.8c-1.493-4.48,0.93-9.31,5.41-10.803
		c4.48-1.493,9.31,0.93,10.803,5.41l25.6,76.8c1.493,4.471-0.93,9.301-5.402,10.795
		C473.318,507.588,472.397,507.733,471.475,507.733z"/>
	<path style="fill:#CFCFCF;" d="M343.475,507.733c-4.71,0-8.533-3.814-8.533-8.533c0-0.913,0.145-1.826,0.435-2.697l25.6-76.8
		c1.493-4.48,6.323-6.903,10.803-5.41c4.48,1.493,6.903,6.323,5.41,10.803l-25.6,76.8
		C350.43,505.387,347.153,507.742,343.475,507.733z"/>
</g>
<rect y="490.667" style="fill:#D9D9D9;" width="512" height="17.067"/>
<g>
	<path style="fill:#4398D1;" d="M74.658,388.267l-14.822-96.333c-1.289-8.397-8.516-14.601-17.015-14.601l0,0
		c-9.515,0.017-17.203,7.748-17.186,17.254c0,0.657,0.043,1.314,0.119,1.971L38.75,407.33c1.015,8.593,8.294,15.07,16.947,15.07
		h104.294c9.429,0,17.067-7.637,17.067-17.067l0,0c0-9.429-7.637-17.067-17.067-17.067H74.658z"/>
	<path style="fill:#4398D1;" d="M437.342,388.267l14.822-96.333c1.289-8.397,8.516-14.601,17.015-14.601l0,0
		c9.515,0.017,17.203,7.748,17.186,17.254c0,0.657-0.043,1.314-0.119,1.971L473.25,407.33c-1.015,8.593-8.294,15.07-16.947,15.07
		H352.009c-9.429,0-17.067-7.637-17.067-17.067l0,0c0-9.429,7.637-17.067,17.067-17.067L437.342,388.267L437.342,388.267z"/>
</g>
<rect x="238.933" y="345.6" style="fill:#BFBFBF;" width="34.133" height="25.6"/>
<g>
</g>
<g>
</g>
<g>
</g>
<g>
</g>
<g>
</g>
<g>
</g>
<g>
</g>
<g>
</g>
<g>
</g>
<g>
</g>
<g>
</g>
<g>
</g>
<g>
</g>
<g>
</g>
<g>
</g>
</svg>
