<?xml version="1.0" encoding="iso-8859-1"?>
<!-- Generator: Adobe Illustrator 19.0.0, SVG Export Plug-In . SVG Version: 6.00 Build 0)  -->
<svg version="1.1" id="Capa_1" xmlns="http://www.w3.org/2000/svg" xmlns:xlink="http://www.w3.org/1999/xlink" x="0px" y="0px"
	 viewBox="0 0 512 512" style="enable-background:new 0 0 512 512;" xml:space="preserve">
<rect x="53.895" y="67.368" style="fill:#4398D1;" width="458.105" height="323.368"/>
<rect y="121.263" style="fill:#E5E5E5;" width="458.105" height="323.368"/>
<path style="fill:#DEDEDE;" d="M458.105,121.263h-68.374C312.589,268.081,157.974,384.449,65.572,444.632h392.533V121.263z"/>
<rect x="206.596" y="166.175" style="fill:#C7C7C7;" width="17.965" height="233.544"/>
<rect x="314.386" y="175.158" style="fill:#87CED9;" width="89.825" height="107.789"/>
<g>
	<rect x="260.491" y="318.877" style="fill:#C7C7C7;" width="152.702" height="17.965"/>
	<rect x="260.491" y="363.789" style="fill:#C7C7C7;" width="152.702" height="17.965"/>
	<rect x="44.912" y="202.105" style="fill:#C7C7C7;" width="35.93" height="17.965"/>
	<rect x="98.807" y="202.105" style="fill:#C7C7C7;" width="71.86" height="17.965"/>
	<rect x="44.912" y="247.018" style="fill:#C7C7C7;" width="71.86" height="17.965"/>
	<rect x="134.737" y="247.018" style="fill:#C7C7C7;" width="35.93" height="17.965"/>
	<rect x="44.912" y="291.93" style="fill:#C7C7C7;" width="125.754" height="17.965"/>
	<rect x="44.912" y="336.842" style="fill:#C7C7C7;" width="71.86" height="17.965"/>
	<rect x="134.737" y="336.842" style="fill:#C7C7C7;" width="35.93" height="17.965"/>
</g>
<g>
	<path style="fill:#4398D1;" d="M354.807,222.253c-7.437,0.018-14.579-2.937-19.824-8.219c-3.988-3.8-10.258-3.8-14.246,0
		c-11.093,10.599-28.555,10.599-39.649,0c-3.988-3.8-10.258-3.8-14.246,0l-12.701-12.701c10.959-10.932,28.69-10.932,39.649,0
		c3.988,3.809,10.258,3.809,14.246,0c10.959-10.923,28.69-10.923,39.649,0c3.988,3.809,10.258,3.809,14.246,0l12.701,12.701
		C369.386,219.316,362.244,222.271,354.807,222.253z"/>
	<path style="fill:#4398D1;" d="M354.807,258.183c-7.437,0.018-14.579-2.937-19.824-8.219c-3.988-3.8-10.258-3.8-14.246,0
		c-11.093,10.599-28.555,10.599-39.649,0c-3.988-3.8-10.258-3.8-14.246,0l-12.701-12.701c10.959-10.932,28.69-10.932,39.649,0
		c3.988,3.809,10.258,3.809,14.246,0c10.959-10.923,28.69-10.923,39.649,0c3.988,3.809,10.258,3.809,14.246,0l12.701,12.701
		C369.386,255.245,362.244,258.201,354.807,258.183z"/>
</g>
<g>
</g>
<g>
</g>
<g>
</g>
<g>
</g>
<g>
</g>
<g>
</g>
<g>
</g>
<g>
</g>
<g>
</g>
<g>
</g>
<g>
</g>
<g>
</g>
<g>
</g>
<g>
</g>
<g>
</g>
</svg>
