<?xml version="1.0" encoding="iso-8859-1"?>
<!-- Generator: Adobe Illustrator 19.0.0, SVG Export Plug-In . SVG Version: 6.00 Build 0)  -->
<svg version="1.1" id="Capa_1" xmlns="http://www.w3.org/2000/svg" xmlns:xlink="http://www.w3.org/1999/xlink" x="0px" y="0px"
	 viewBox="0 0 512 512" style="enable-background:new 0 0 512 512;" xml:space="preserve">
<path style="fill:#3582BD;" d="M131.619,70.621h247.172c29.255,0,52.966,23.711,52.966,52.966v220.69
	c0,29.255-23.711,52.966-52.966,52.966H131.619c-29.255,0-52.966-23.711-52.966-52.966v-220.69
	C78.654,94.332,102.365,70.621,131.619,70.621z"/>
<g>
	<rect x="237.55" style="fill:#E5E5E5;" width="35.31" height="70.621"/>
	<rect x="131.619" style="fill:#E5E5E5;" width="44.138" height="70.621"/>
	<rect x="334.654" style="fill:#E5E5E5;" width="44.138" height="70.621"/>
</g>
<path style="fill:#4398D1;" d="M78.654,441.379V220.69c0-29.255,23.711-52.966,52.966-52.966h247.172
	c29.255,0,52.966,23.711,52.966,52.966v220.69c0,39-31.62,70.621-70.621,70.621H149.274C110.274,512,78.654,480.38,78.654,441.379z"
	/>
<path style="fill:#87CED9;" d="M78.009,445.846l52.206-203.034c6.02-23.411,27.127-39.777,51.297-39.777h147.421
	c24.17,0,45.277,16.366,51.297,39.777l52.206,203.034c7.283,28.328-9.781,57.203-38.109,64.486
	c-4.317,1.112-8.766,1.668-13.224,1.668H129.306c-29.255,0-52.966-23.711-52.966-52.966
	C76.341,454.585,76.906,450.154,78.009,445.846z"/>
<path style="fill:#71C4D1;" d="M381.775,241.946c-0.318-1.254-0.883-2.392-1.254-3.602
	C291.231,367.351,172.014,452.793,96.309,498.229c9.587,8.342,21.875,12.924,34.586,12.888h251.798
	c29.255,0,52.966-23.711,52.966-52.966c0-4.449-0.556-8.881-1.668-13.188L381.775,241.946z"/>
<g>
	<path style="fill:#126099;" d="M272.861,333.497v-11.776c16.799-9.587,22.634-30.976,13.047-47.775
		c-3.107-5.438-7.609-9.94-13.047-13.047v-22.554h-35.31v22.554c-16.799,9.587-22.634,30.976-13.047,47.775
		c3.107,5.438,7.609,9.94,13.047,13.047v11.776c-10.902,9.754-11.838,26.492-2.083,37.394c9.754,10.902,26.492,11.838,37.394,2.083
		s11.838-26.492,2.083-37.394C274.291,334.848,273.593,334.151,272.861,333.497z"/>
	<polygon style="fill:#126099;" points="166.93,379.586 166.93,406.069 122.792,406.069 122.792,441.379 166.93,441.379 
		166.93,467.862 202.24,467.862 202.24,379.586 	"/>
	<polygon style="fill:#126099;" points="343.481,379.586 343.481,406.069 387.619,406.069 387.619,441.379 343.481,441.379 
		343.481,467.862 308.171,467.862 308.171,379.586 	"/>
</g>
<g>
	<circle style="fill:#146AA8;" cx="255.206" cy="423.724" r="17.655"/>
	<circle style="fill:#146AA8;" cx="255.206" cy="467.862" r="17.655"/>
</g>
<g>
</g>
<g>
</g>
<g>
</g>
<g>
</g>
<g>
</g>
<g>
</g>
<g>
</g>
<g>
</g>
<g>
</g>
<g>
</g>
<g>
</g>
<g>
</g>
<g>
</g>
<g>
</g>
<g>
</g>
</svg>
