<?xml version="1.0" encoding="iso-8859-1"?>
<!-- Generator: Adobe Illustrator 19.0.0, SVG Export Plug-In . SVG Version: 6.00 Build 0)  -->
<svg version="1.1" id="Capa_1" xmlns="http://www.w3.org/2000/svg" xmlns:xlink="http://www.w3.org/1999/xlink" x="0px" y="0px"
	 viewBox="0 0 512 512" style="enable-background:new 0 0 512 512;" xml:space="preserve">
<polygon style="fill:#D9D9D9;" points="512,308.966 423.724,26.483 0,158.897 88.276,450.207 "/>
<polygon style="fill:#4398D1;" points="432.552,185.379 397.241,79.448 52.966,185.379 52.966,238.345 432.552,238.345 "/>
<polygon style="fill:#3E8CC7;" points="97.103,238.345 432.552,238.345 432.552,185.379 405.151,103.168 "/>
<g>
	<path style="fill:#E5E5E5;" d="M366.345,150.069c-2.33,0.035-4.643,0.433-6.85,1.192c-6.674-15.704-24.814-23.031-40.519-16.358
		c-9.445,4.017-16.287,12.456-18.247,22.537c-10.62-10.055-27.383-9.604-37.438,1.015c-6.806,7.186-9.039,17.576-5.782,26.924H384
		c7.309-9.754,5.341-23.587-4.414-30.897C375.764,151.614,371.121,150.069,366.345,150.069z"/>
	<rect x="35.31" y="185.379" style="fill:#E5E5E5;" width="441.379" height="300.138"/>
</g>
<rect x="70.621" y="220.69" style="fill:#4398D1;" width="370.759" height="229.517"/>
<polygon style="fill:#88B337;" points="308.966,406.069 185.379,256 70.621,370.759 70.621,450.207 441.379,450.207 
	441.379,379.586 397.241,326.621 "/>
<circle style="fill:#FDB62F;" cx="308.966" cy="291.31" r="35.31"/>
<polygon style="fill:#7BA825;" points="308.966,406.069 273.629,363.158 70.621,436.745 70.621,450.207 441.379,450.207 
	441.379,379.586 397.241,326.621 "/>
<g>
</g>
<g>
</g>
<g>
</g>
<g>
</g>
<g>
</g>
<g>
</g>
<g>
</g>
<g>
</g>
<g>
</g>
<g>
</g>
<g>
</g>
<g>
</g>
<g>
</g>
<g>
</g>
<g>
</g>
</svg>
