<?xml version="1.0" encoding="iso-8859-1"?>
<!-- Generator: Adobe Illustrator 19.0.0, SVG Export Plug-In . SVG Version: 6.00 Build 0)  -->
<svg version="1.1" id="Capa_1" xmlns="http://www.w3.org/2000/svg" xmlns:xlink="http://www.w3.org/1999/xlink" x="0px" y="0px"
	 viewBox="0 0 512 512" style="enable-background:new 0 0 512 512;" xml:space="preserve">
<path style="fill:#126099;" d="M441.379,0h-52.966v512h52.966c19.5,0,35.31-15.81,35.31-35.31V35.31
	C476.69,15.81,460.879,0,441.379,0z"/>
<path style="fill:#CFCFCF;" d="M406.069,0h-52.966v512h52.966c19.5,0,35.31-15.81,35.31-35.31V35.31
	C441.379,15.81,425.569,0,406.069,0z"/>
<path style="fill:#126099;" d="M35.31,0h335.448c19.5,0,35.31,15.81,35.31,35.31V476.69c0,19.5-15.81,35.31-35.31,35.31H35.31l0,0V0
	L35.31,0z"/>
<rect x="176.552" y="388.414" style="fill:#FDB62F;" width="88.276" height="70.621"/>
<g>
	<rect x="176.552" y="414.897" style="fill:#F08222;" width="26.483" height="17.655"/>
	<rect x="238.345" y="414.897" style="fill:#F08222;" width="26.483" height="17.655"/>
</g>
<path style="fill:#3E8CC7;" d="M220.69,52.966c-78.009,0-141.241,63.232-141.241,141.241S142.68,335.448,220.69,335.448
	s141.241-63.232,141.241-141.241C361.843,116.242,298.655,53.054,220.69,52.966z M270.124,105.931h-40.607v-34.86
	c9.587,0.636,19.068,2.392,28.248,5.244C262.479,85.928,266.611,95.815,270.124,105.931z M281.777,86.89
	c9.19,5.244,17.673,11.644,25.238,19.041h-18.353c-2.074-6.418-4.387-12.765-6.921-19.041H281.777z M211.862,203.034v61.793H165.87
	c-5.482-20.171-8.589-40.907-9.269-61.793H211.862z M156.601,185.379c0.68-20.886,3.787-41.622,9.269-61.793h45.992v61.793H156.601z
	 M229.517,203.034h55.261c-0.68,20.886-3.787,41.622-9.269,61.793h-45.992V203.034z M229.517,185.379v-61.793h45.992
	c5.482,20.171,8.589,40.907,9.269,61.793H229.517z M211.862,105.931h-40.607c3.513-10.116,7.645-20.003,12.359-29.617
	c9.181-2.851,18.662-4.608,28.248-5.244V105.931z M152.717,105.931h-18.361c7.583-7.398,16.075-13.798,25.273-19.041
	C157.096,93.166,154.792,99.513,152.717,105.931z M147.606,123.586c-5.12,20.224-8.024,40.942-8.66,61.793H97.545
	c1.554-22.201,9.101-43.555,21.857-61.793H147.606z M138.946,203.034c0.636,20.851,3.54,41.569,8.66,61.793h-28.195
	c-12.756-18.238-20.303-39.592-21.857-61.793H138.946z M152.717,282.483c2.074,6.418,4.378,12.765,6.912,19.041
	c-9.198-5.244-17.69-11.644-25.265-19.041H152.717z M171.255,282.483h40.607v34.86c-9.587-0.636-19.068-2.392-28.248-5.244
	C178.9,302.486,174.769,292.599,171.255,282.483z M229.517,282.483h40.607c-3.513,10.116-7.645,20.003-12.359,29.617
	c-9.181,2.851-18.662,4.608-28.248,5.244V282.483z M288.662,282.483h18.361c-7.583,7.398-16.075,13.798-25.273,19.041
	C284.284,295.247,286.588,288.9,288.662,282.483z M293.773,264.828c5.12-20.224,8.024-40.942,8.66-61.793h41.401
	c-1.554,22.201-9.101,43.555-21.857,61.793H293.773z M302.433,185.379c-0.636-20.851-3.54-41.569-8.66-61.793h28.248
	c12.756,18.238,20.303,39.592,21.857,61.793H302.433z"/>
<g>
</g>
<g>
</g>
<g>
</g>
<g>
</g>
<g>
</g>
<g>
</g>
<g>
</g>
<g>
</g>
<g>
</g>
<g>
</g>
<g>
</g>
<g>
</g>
<g>
</g>
<g>
</g>
<g>
</g>
</svg>
