<?xml version="1.0" encoding="iso-8859-1"?>
<!-- Generator: Adobe Illustrator 19.0.0, SVG Export Plug-In . SVG Version: 6.00 Build 0)  -->
<svg version="1.1" id="Capa_1" xmlns="http://www.w3.org/2000/svg" xmlns:xlink="http://www.w3.org/1999/xlink" x="0px" y="0px"
	 viewBox="0 0 512 512" style="enable-background:new 0 0 512 512;" xml:space="preserve">
<path style="fill:#4398D1;" d="M150.069,0h211.862c14.627,0,26.483,11.855,26.483,26.483v459.034
	c0,14.627-11.855,26.483-26.483,26.483H150.069c-14.627,0-26.483-11.855-26.483-26.483V26.483C123.586,11.855,135.442,0,150.069,0z"
	/>
<path style="fill:#3E8CC7;" d="M361.931,0H336.04L185.847,512h176.084c14.627,0,26.483-11.855,26.483-26.483l0,0V26.483
	C388.414,11.855,376.558,0,361.931,0z"/>
<rect x="123.586" y="70.621" style="fill:#87CED9;" width="264.828" height="370.759"/>
<rect x="301.667" y="336.948" transform="matrix(-0.7071 0.7071 -0.7071 -0.7071 813.5155 386.8646)" style="fill:#FDB62F;" width="49.937" height="49.937"/>
<rect x="220.69" y="467.862" style="fill:#126099;" width="70.621" height="17.655"/>
<rect x="219.29" y="123.275" transform="matrix(-0.7071 0.7071 -0.7071 -0.7071 568.8334 73.3417)" style="fill:#FDB62F;" width="99.874" height="62.41"/>
<path style="fill:#DE4C3C;" d="M256,26.483c-26.094,0-47.245,21.16-47.236,47.254c0,9.322,2.763,18.441,7.927,26.191L256,158.897
	l39.309-58.968c14.468-21.716,8.598-51.041-13.118-65.518C274.441,29.246,265.322,26.483,256,26.483z M256,88.276
	c-9.754,0-17.655-7.901-17.655-17.655S246.246,52.966,256,52.966s17.655,7.901,17.655,17.655S265.754,88.276,256,88.276z"/>
<polygon style="fill:#E5E5E5;" points="308.966,441.379 229.517,361.931 150.069,441.379 123.586,441.379 123.586,344.276 
	167.724,300.138 123.586,256 123.586,185.379 203.034,264.828 388.414,79.448 388.414,203.034 264.828,326.621 379.586,441.379 "/>
<path style="fill:#DE4C3C;" d="M167.724,388.414c-2.339,0-4.59-0.927-6.241-2.586l-17.655-17.655c-3.452-3.443-3.452-9.039,0-12.482
	c0.971-0.971,2.154-1.704,3.452-2.136l26.483-8.828c4.626-1.536,9.622,0.971,11.158,5.597c0.6,1.81,0.6,3.761,0,5.57l-8.828,26.483
	C174.892,385.977,171.52,388.414,167.724,388.414z"/>
<g>
	
		<rect x="199.407" y="317.796" transform="matrix(-0.7071 0.7071 -0.7071 -0.7071 592.6755 407.7524)" style="fill:#3E8CC7;" width="24.964" height="17.655"/>
	
		<rect x="234.718" y="282.478" transform="matrix(-0.7071 0.7071 -0.7071 -0.7071 627.9808 322.4937)" style="fill:#3E8CC7;" width="24.964" height="17.655"/>
	
		<rect x="270.002" y="247.161" transform="matrix(-0.7071 0.7071 -0.7071 -0.7071 663.241 237.2537)" style="fill:#3E8CC7;" width="24.964" height="17.655"/>
	<path style="fill:#3E8CC7;" d="M315.207,235.758l-12.482-12.482l11.414-11.414l-11.414-11.414l12.482-12.482l17.655,17.655
		c3.443,3.443,3.443,9.039,0,12.482L315.207,235.758z"/>
</g>
<g>
</g>
<g>
</g>
<g>
</g>
<g>
</g>
<g>
</g>
<g>
</g>
<g>
</g>
<g>
</g>
<g>
</g>
<g>
</g>
<g>
</g>
<g>
</g>
<g>
</g>
<g>
</g>
<g>
</g>
</svg>
