<?xml version="1.0" encoding="iso-8859-1"?>
<!-- Generator: Adobe Illustrator 19.0.0, SVG Export Plug-In . SVG Version: 6.00 Build 0)  -->
<svg version="1.1" id="Capa_1" xmlns="http://www.w3.org/2000/svg" xmlns:xlink="http://www.w3.org/1999/xlink" x="0px" y="0px"
	 viewBox="0 0 512 512" style="enable-background:new 0 0 512 512;" xml:space="preserve">
<polygon style="fill:#DE4C3C;" points="308.966,26.483 256,0 256,52.966 "/>
<rect x="247.172" style="fill:#CFCFCF;" width="17.655" height="132.414"/>
<polygon style="fill:#87CED9;" points="414.897,194.207 393.587,224.035 344.276,150.069 317.793,194.207 256,97.103 
	194.675,184.717 167.724,150.069 0,370.759 0,512 512,512 512,379.586 "/>
<path style="fill:#71C4D1;" d="M452.537,266.063C317.581,400.102,97.148,460.156,0,482.242V512h512V379.586L452.537,266.063z"/>
<polygon style="fill:#729E1C;" points="229.517,512 414.897,353.103 459.034,388.414 512,335.448 512,512 "/>
<polygon style="fill:#8BB340;" points="256,423.724 231.115,448.609 136.271,334.901 112.031,365.259 26.483,264.828 0,300.138 
	0,512 326.621,512 "/>
<rect x="52.966" y="441.379" style="fill:#75462E;" width="17.655" height="35.31"/>
<g>
	<polygon style="fill:#729E1C;" points="35.31,441.379 88.276,441.379 61.793,361.931 	"/>
	<polygon style="fill:#729E1C;" points="97.103,512 150.069,512 123.586,432.552 	"/>
</g>
<rect x="450.207" y="459.034" style="fill:#75462E;" width="17.655" height="44.138"/>
<path style="fill:#71C4D1;" d="M278.872,254.87l-31.7-38.047l-31.7,38.047c-3.116,3.743-8.686,4.255-12.429,1.139
	C203.034,256,203.034,256,203.034,256l0,0c-3.743-3.116-4.255-8.686-1.139-12.429c0,0,0,0,0.009-0.009l38.479-46.177
	c3.116-3.752,8.686-4.264,12.429-1.148c0.415,0.344,0.803,0.733,1.148,1.148l38.479,46.177c3.125,3.743,2.622,9.313-1.121,12.429
	C291.31,256,291.31,256,291.31,256l0,0C287.567,259.125,281.997,258.622,278.872,254.87L278.872,254.87z"/>
<rect x="167.724" y="388.414" style="fill:#75462E;" width="17.655" height="35.31"/>
<polygon style="fill:#729E1C;" points="150.069,388.414 203.034,388.414 176.552,308.966 "/>
<rect x="370.759" y="432.552" style="fill:#75462E;" width="17.655" height="35.31"/>
<polygon style="fill:#88B337;" points="353.103,432.552 406.069,432.552 379.586,353.103 "/>
<g>
	<path style="fill:#71C4D1;" d="M226.216,235.034c-2.719,0-5.288-1.245-6.965-3.39l-55.172-70.621
		c-3.001-3.84-2.322-9.393,1.518-12.394c3.84-3.001,9.393-2.322,12.394,1.518l55.172,70.621c3.001,3.84,2.322,9.393-1.518,12.394
		C230.1,234.372,228.184,235.034,226.216,235.034z"/>
	<path style="fill:#71C4D1;" d="M376.664,255.841c-4.873,0-8.828-3.955-8.819-8.836c0-1.933,0.636-3.814,1.81-5.35l36.017-48.393
		c2.957-3.875,8.501-4.617,12.376-1.66c3.875,2.957,4.617,8.501,1.66,12.376l-36.017,48.393
		C382.023,254.561,379.418,255.841,376.664,255.841z"/>
</g>
<polygon style="fill:#88B337;" points="432.552,467.862 485.517,467.862 459.034,388.414 "/>
<g>
	<rect x="52.966" y="441.379" style="fill:#5E3825;" width="17.655" height="8.828"/>
	<rect x="167.724" y="388.414" style="fill:#5E3825;" width="17.655" height="8.828"/>
	<rect x="370.759" y="432.552" style="fill:#5E3825;" width="17.655" height="8.828"/>
	<rect x="450.207" y="467.862" style="fill:#5E3825;" width="17.655" height="8.828"/>
</g>
<g>
</g>
<g>
</g>
<g>
</g>
<g>
</g>
<g>
</g>
<g>
</g>
<g>
</g>
<g>
</g>
<g>
</g>
<g>
</g>
<g>
</g>
<g>
</g>
<g>
</g>
<g>
</g>
<g>
</g>
</svg>
