<?xml version="1.0" encoding="iso-8859-1"?>
<!-- Generator: Adobe Illustrator 19.0.0, SVG Export Plug-In . SVG Version: 6.00 Build 0)  -->
<svg version="1.1" id="Capa_1" xmlns="http://www.w3.org/2000/svg" xmlns:xlink="http://www.w3.org/1999/xlink" x="0px" y="0px"
	 viewBox="0 0 512 512" style="enable-background:new 0 0 512 512;" xml:space="preserve">
<polygon style="fill:#4398D1;" points="123.586,32.953 256,0 388.414,35.31 512,0 512,476.69 388.414,512 256,476.69 123.586,512 
	0,476.69 0,0 52.966,15.13 "/>
<g>
	<polygon style="fill:#3E8CC7;" points="52.966,15.13 0,0 0,476.69 123.586,512 123.586,32.953 	"/>
	<polygon style="fill:#3E8CC7;" points="256,0 256,476.69 388.414,512 388.414,35.31 	"/>
</g>
<g>
	<polygon style="fill:#88B337;" points="0,97.103 44.138,141.241 44.138,211.862 105.931,273.655 105.931,229.517 158.897,229.517 
		211.862,172.138 238.345,167.724 203.034,123.586 172.138,154.483 145.655,128 176.552,97.103 	"/>
	<polygon style="fill:#88B337;" points="105.931,273.655 176.552,273.655 198.621,295.724 229.517,295.724 229.517,370.759 
		185.379,406.069 185.379,450.207 141.241,414.897 141.241,361.931 105.931,335.448 	"/>
	<polygon style="fill:#88B337;" points="423.724,300.138 459.034,247.172 406.069,247.172 379.586,194.207 308.966,194.207 
		273.655,233.931 273.655,273.655 335.448,273.655 335.448,406.069 388.414,406.069 	"/>
	<polygon style="fill:#88B337;" points="406.069,61.793 361.931,114.759 335.448,114.759 335.448,158.897 423.724,158.897 
		441.379,203.034 512,203.034 512,61.793 	"/>
	<polygon style="fill:#88B337;" points="450.207,406.069 388.414,441.379 406.069,467.862 467.862,441.379 	"/>
	<polygon style="fill:#88B337;" points="282.483,70.621 300.138,97.103 390.082,34.834 388.414,35.31 291.266,9.401 300.138,52.966 
			"/>
</g>
<g>
	<polygon style="fill:#80A638;" points="122.483,229.517 122.483,97.103 0,97.103 44.138,141.241 44.138,211.862 105.931,273.655 
		105.931,229.517 	"/>
	<polygon style="fill:#80A638;" points="105.931,273.655 105.931,335.448 122.483,347.86 122.483,273.655 	"/>
	<polygon style="fill:#80A638;" points="308.966,194.207 273.655,233.931 273.655,273.655 335.448,273.655 335.448,406.069 
		388.414,406.069 388.414,211.862 379.586,194.207 	"/>
	<polygon style="fill:#80A638;" points="361.931,114.759 335.448,114.759 335.448,158.897 388.414,158.897 388.414,82.979 	"/>
</g>
<g>
	<path style="fill:#DE4C3C;" d="M91.463,0C65.377-0.009,44.217,21.133,44.217,47.228c0,9.331,2.763,18.458,7.936,26.218
		l39.309,58.968l39.309-58.968c14.468-21.716,8.598-51.041-13.118-65.518C109.903,2.763,100.785,0,91.463,0z M91.463,61.793
		c-9.754,0-17.655-7.901-17.655-17.655s7.901-17.655,17.655-17.655s17.655,7.901,17.655,17.655S101.217,61.793,91.463,61.793z"/>
	<path style="fill:#DE4C3C;" d="M429.365,300.138c-26.094,0-47.245,21.16-47.236,47.254c0,9.322,2.763,18.441,7.927,26.191
		l39.309,58.968l39.309-58.968c14.477-21.707,8.616-51.032-13.091-65.51C447.823,302.901,438.696,300.138,429.365,300.138z
		 M429.365,361.931c-9.754,0-17.655-7.901-17.655-17.655c0-9.754,7.901-17.655,17.655-17.655s17.655,7.901,17.655,17.655
		C447.02,354.022,439.119,361.922,429.365,361.931L429.365,361.931z"/>
</g>
<g>
</g>
<g>
</g>
<g>
</g>
<g>
</g>
<g>
</g>
<g>
</g>
<g>
</g>
<g>
</g>
<g>
</g>
<g>
</g>
<g>
</g>
<g>
</g>
<g>
</g>
<g>
</g>
<g>
</g>
</svg>
