<?xml version="1.0" encoding="iso-8859-1"?>
<!-- Generator: Adobe Illustrator 19.0.0, SVG Export Plug-In . SVG Version: 6.00 Build 0)  -->
<svg version="1.1" id="Capa_1" xmlns="http://www.w3.org/2000/svg" xmlns:xlink="http://www.w3.org/1999/xlink" x="0px" y="0px"
	 viewBox="0 0 512 512" style="enable-background:new 0 0 512 512;" xml:space="preserve">
<path style="fill:#87CED9;" d="M291.299,35.467C291.387,15.973,275.662,0.097,256.168,0c-19.494-0.088-35.378,15.637-35.466,35.131
	c-0.062,12.672,6.671,24.4,17.649,30.736V512h35.299V65.868C284.539,59.62,291.264,48.024,291.299,35.467z"/>
<g>
	<polygon style="fill:#4398D1;" points="238.351,176.662 26.558,176.662 0.084,141.363 26.558,106.064 238.351,106.064 	"/>
	<polygon style="fill:#4398D1;" points="273.65,247.26 485.442,247.26 511.916,211.961 485.442,176.662 273.65,176.662 	"/>
	<polygon style="fill:#4398D1;" points="238.351,317.857 61.857,317.857 35.383,282.558 61.857,247.26 238.351,247.26 	"/>
	<polygon style="fill:#4398D1;" points="273.65,397.279 450.143,397.279 476.618,361.981 450.143,326.682 273.65,326.682 	"/>
</g>
<g>
	<rect x="220.701" y="106.073" style="fill:#3E8CC7;" width="17.649" height="70.598"/>
	<rect x="220.701" y="247.268" style="fill:#3E8CC7;" width="17.649" height="70.598"/>
	<rect x="273.65" y="176.671" style="fill:#3E8CC7;" width="17.649" height="70.598"/>
	<rect x="273.65" y="326.691" style="fill:#3E8CC7;" width="17.649" height="70.598"/>
</g>
<g>
</g>
<g>
</g>
<g>
</g>
<g>
</g>
<g>
</g>
<g>
</g>
<g>
</g>
<g>
</g>
<g>
</g>
<g>
</g>
<g>
</g>
<g>
</g>
<g>
</g>
<g>
</g>
<g>
</g>
</svg>
