<?xml version="1.0" encoding="iso-8859-1"?>
<!-- Generator: Adobe Illustrator 19.0.0, SVG Export Plug-In . SVG Version: 6.00 Build 0)  -->
<svg version="1.1" id="Capa_1" xmlns="http://www.w3.org/2000/svg" xmlns:xlink="http://www.w3.org/1999/xlink" x="0px" y="0px"
	 viewBox="0 0 512 512" style="enable-background:new 0 0 512 512;" xml:space="preserve">
<path style="fill:#4398D1;" d="M375.187,512L375.187,512c-49.284,0-89.75-38.965-91.604-88.214L273.246,149.99
	c-2.119-56.302,41.799-103.662,98.101-105.781c1.271-0.044,2.56-0.071,3.84-0.071l0,0c56.338,0.018,101.994,45.692,101.976,102.029
	c0,1.271-0.026,2.551-0.071,3.822l-10.328,273.796C464.902,473.026,424.454,511.982,375.187,512z"/>
<path style="fill:#3E8CC7;" d="M448.845,75.564c-9.622,199.256-105.26,307.615-164.511,356.564
	c5.923,45.665,44.809,79.854,90.854,79.872l0,0c49.284,0,89.741-38.965,91.604-88.214l10.302-273.796
	C478.187,122.368,467.992,95.497,448.845,75.564z"/>
<path style="fill:#4398D1;" d="M136.842,467.862L136.842,467.862c-49.284,0-89.75-38.965-91.604-88.214L34.901,105.852
	C32.774,49.549,76.7,2.189,132.994,0.071C134.274,0.026,135.562,0,136.842,0l0,0c56.338,0.018,101.994,45.692,101.976,102.029
	c0,1.271-0.026,2.551-0.071,3.822L228.42,379.648C226.557,428.888,186.109,467.844,136.842,467.862z"/>
<path style="fill:#3E8CC7;" d="M204.32,25.6C184.397,244.286,96.624,355.663,48.699,401.081
	c11.123,39.477,47.13,66.754,88.143,66.781l0,0c49.284,0,89.741-38.965,91.604-88.214l10.302-273.796
	C239.931,75.282,227.281,45.806,204.32,25.6z"/>
<g>
	<path style="fill:#FDB62F;" d="M136.842,88.276c-4.873,0-8.828-3.955-8.828-8.828V52.966c0-4.873,3.955-8.828,8.828-8.828
		c4.873,0,8.828,3.955,8.828,8.828v26.483C145.67,84.321,141.715,88.276,136.842,88.276z"/>
	<path style="fill:#FDB62F;" d="M72.233,300.138c-3.902-0.009-7.336-2.569-8.448-6.303c-0.803-2.648-19.262-66.207,10.214-113.143
		c6.347-10.125,13.109-19.73,19.65-29.007c18.441-26.183,34.366-48.799,34.366-72.236c0-4.873,3.955-8.828,8.828-8.828
		s8.828,3.955,8.828,8.828c0,29.034-18.264,54.961-37.579,82.397c-6.418,9.092-13.038,18.538-19.138,28.248
		c-25.185,40.139-8.422,98.145-8.254,98.728c1.386,4.67-1.271,9.578-5.941,10.973C73.937,300.032,73.081,300.147,72.233,300.138z"/>
	<path style="fill:#FDB62F;" d="M201.443,300.138c-0.856,0-1.704-0.124-2.525-0.371c-4.67-1.395-7.327-6.303-5.941-10.973
		c0.177-0.583,16.931-58.589-8.254-98.728c-6.091-9.71-12.721-19.129-19.138-28.248c-19.315-27.436-37.57-53.363-37.57-82.388
		c0-4.873,3.955-8.828,8.828-8.828s8.828,3.955,8.828,8.828c0,23.437,15.89,46.045,34.357,72.218
		c6.541,9.287,13.312,18.9,19.659,29.025c29.475,46.98,11.008,110.46,10.205,113.143
		C208.778,297.56,205.344,300.129,201.443,300.138z"/>
	<path style="fill:#FDB62F;" d="M375.187,132.414c-4.873,0-8.828-3.955-8.828-8.828V97.103c0-4.873,3.955-8.828,8.828-8.828
		s8.828,3.955,8.828,8.828v26.483C384.015,128.459,380.06,132.414,375.187,132.414z"/>
	<path style="fill:#FDB62F;" d="M310.578,344.276c-3.902-0.009-7.336-2.569-8.448-6.303c-0.803-2.648-19.262-66.207,10.214-113.143
		c6.347-10.125,13.109-19.73,19.65-29.007c18.441-26.183,34.366-48.799,34.366-72.236c0-4.873,3.955-8.828,8.828-8.828
		c4.873,0,8.828,3.955,8.828,8.828c0,29.034-18.264,54.961-37.579,82.397c-6.418,9.092-13.038,18.538-19.138,28.248
		c-25.185,40.139-8.422,98.145-8.254,98.728c1.386,4.67-1.271,9.578-5.941,10.973C312.282,344.17,311.426,344.285,310.578,344.276z"
		/>
	<path style="fill:#FDB62F;" d="M439.787,344.276c-0.856,0-1.704-0.124-2.525-0.371c-4.67-1.395-7.327-6.303-5.941-10.973
		c0.177-0.583,16.931-58.589-8.254-98.728c-6.091-9.71-12.721-19.129-19.138-28.248c-19.315-27.436-37.57-53.363-37.57-82.388
		c0-4.873,3.955-8.828,8.828-8.828s8.828,3.955,8.828,8.828c0,23.437,15.89,46.045,34.357,72.218
		c6.541,9.287,13.312,18.9,19.659,29.025c29.475,46.98,11.008,110.46,10.205,113.143
		C447.123,341.698,443.689,344.267,439.787,344.276z"/>
</g>
<g>
</g>
<g>
</g>
<g>
</g>
<g>
</g>
<g>
</g>
<g>
</g>
<g>
</g>
<g>
</g>
<g>
</g>
<g>
</g>
<g>
</g>
<g>
</g>
<g>
</g>
<g>
</g>
<g>
</g>
</svg>
