<?xml version="1.0" encoding="iso-8859-1"?>
<!-- Generator: Adobe Illustrator 19.0.0, SVG Export Plug-In . SVG Version: 6.00 Build 0)  -->
<svg version="1.1" id="Capa_1" xmlns="http://www.w3.org/2000/svg" xmlns:xlink="http://www.w3.org/1999/xlink" x="0px" y="0px"
	 viewBox="0 0 512 512" style="enable-background:new 0 0 512 512;" xml:space="preserve">
<path style="fill:#4398D1;" d="M487.979,198.409L204.8,311.467H59.733l-51.2-85.333l34.133-8.533l68.267,42.667L384,153.771
	c32.887-13.815,69.803-14.532,103.202-2.005l0,0c9.788,3.669,16.265,13.022,16.265,23.475l0,0
	C503.467,185.387,497.357,194.534,487.979,198.409z"/>
<polygon style="fill:#3E8CC7;" points="59.733,4.267 8.533,21.333 230.4,217.6 332.8,174.933 "/>
<path style="fill:#126099;" d="M245.188,251.733l-6.255-15.881l15.846-6.246l6.255,15.881L245.188,251.733z M276.881,239.249
	l-6.255-15.881l15.846-6.246l6.255,15.881L276.881,239.249z M308.574,226.765l-6.263-15.881l15.846-6.246l6.263,15.881
	L308.574,226.765z M340.267,214.281l-6.263-15.881l15.863-6.238l6.255,15.872L340.267,214.281z M371.951,201.796l-6.255-15.881
	l15.846-6.246l6.255,15.881L371.951,201.796z M403.627,189.312l-6.255-15.881l15.838-6.238l6.263,15.872L403.627,189.312z"/>
<g>
	<rect x="443.733" y="371.2" style="fill:#87CED9;" width="34.133" height="128"/>
	<polygon style="fill:#87CED9;" points="494.933,371.2 426.667,371.2 418.133,328.533 503.467,328.533 	"/>
	<rect x="443.733" y="294.4" style="fill:#87CED9;" width="34.133" height="34.133"/>
</g>
<g>
	<rect x="452.267" y="260.267" style="fill:#71C4D1;" width="17.067" height="34.133"/>
	<rect x="443.733" y="371.2" style="fill:#71C4D1;" width="34.133" height="17.067"/>
</g>
<rect x="170.667" y="430.933" style="fill:#87CED9;" width="238.933" height="68.267"/>
<g>
	<rect x="366.933" y="456.533" style="fill:#3E8CC7;" width="17.067" height="17.067"/>
	<rect x="332.8" y="456.533" style="fill:#3E8CC7;" width="17.067" height="17.067"/>
	<rect x="298.667" y="456.533" style="fill:#3E8CC7;" width="17.067" height="17.067"/>
	<rect x="264.533" y="456.533" style="fill:#3E8CC7;" width="17.067" height="17.067"/>
	<rect x="230.4" y="456.533" style="fill:#3E8CC7;" width="17.067" height="17.067"/>
	<rect x="196.267" y="456.533" style="fill:#3E8CC7;" width="17.067" height="17.067"/>
</g>
<rect x="68.267" y="456.533" style="fill:#71C4D1;" width="102.4" height="42.667"/>
<path style="fill:#126099;" d="M438.332,174.08l52.429-20.642c-1.143-0.657-2.33-1.229-3.558-1.707
	c-7.407-2.739-15.027-4.838-22.784-6.298l-32.35,12.774L438.332,174.08z"/>
<rect y="490.667" style="fill:#71C4D1;" width="512" height="17.067"/>
<g>
</g>
<g>
</g>
<g>
</g>
<g>
</g>
<g>
</g>
<g>
</g>
<g>
</g>
<g>
</g>
<g>
</g>
<g>
</g>
<g>
</g>
<g>
</g>
<g>
</g>
<g>
</g>
<g>
</g>
</svg>
