<?xml version="1.0" encoding="iso-8859-1"?>
<!-- Generator: Adobe Illustrator 19.0.0, SVG Export Plug-In . SVG Version: 6.00 Build 0)  -->
<svg version="1.1" id="Capa_1" xmlns="http://www.w3.org/2000/svg" xmlns:xlink="http://www.w3.org/1999/xlink" x="0px" y="0px"
	 viewBox="0 0 512 512" style="enable-background:new 0 0 512 512;" xml:space="preserve">
<circle style="fill:#3E8CC7;" cx="256" cy="295.051" r="216.949"/>
<circle style="fill:#71C4D1;" cx="256" cy="295.051" r="173.559"/>
<circle style="fill:#87CED9;" cx="256" cy="295.051" r="156.203"/>
<path style="fill:#71C4D1;" d="M144.922,428.379c73.459,61.44,182.819,51.695,244.259-21.764
	c47.373-56.641,53.682-137.06,15.724-200.392C353.037,337.512,231.788,399.768,144.922,428.379z"/>
<g>
	<path style="fill:#3E8CC7;" d="M256,86.78c-23.96,0-43.39-19.43-43.39-43.39S232.04,0,256,0s43.39,19.43,43.39,43.39
		C299.364,67.341,279.951,86.754,256,86.78z M256,17.356c-14.379,0-26.034,11.655-26.034,26.034S241.621,69.424,256,69.424
		c14.379,0,26.034-11.655,26.034-26.034S270.379,17.356,256,17.356z"/>
	<polygon style="fill:#3E8CC7;" points="169.22,381.831 282.034,321.085 229.966,269.017 	"/>
</g>
<g>
	<polygon style="fill:#DE4C3C;" points="229.966,269.017 282.034,321.085 342.78,208.271 	"/>
	<path style="fill:#DE4C3C;" d="M247.322,121.925v42.956h17.356v-42.956c-2.89-0.139-5.745-0.434-8.678-0.434
		C253.067,121.492,250.212,121.787,247.322,121.925z"/>
	<path style="fill:#DE4C3C;" d="M247.322,468.176c2.89,0.139,5.745,0.434,8.678,0.434c2.933,0,5.788-0.295,8.678-0.434V425.22
		h-17.356V468.176z"/>
	<path style="fill:#DE4C3C;" d="M82.441,295.051c0,2.933,0.295,5.788,0.434,8.678h42.956v-17.356H82.875
		C82.736,289.263,82.441,292.118,82.441,295.051z"/>
	<path style="fill:#DE4C3C;" d="M429.125,286.373h-42.956v17.356h42.956c0.139-2.89,0.434-5.745,0.434-8.678
		S429.264,289.263,429.125,286.373z"/>
	<path style="fill:#DE4C3C;" d="M127.436,178.766l26.971,26.971l12.271-12.271l-26.962-26.98
		C135.411,170.374,131.315,174.471,127.436,178.766z"/>
	<path style="fill:#DE4C3C;" d="M345.322,396.644l26.962,26.971c4.296-3.888,8.383-7.975,12.271-12.271l-26.971-26.971
		L345.322,396.644z"/>
	<path style="fill:#DE4C3C;" d="M354,184.78l12.271,12.271l18.293-18.284c-3.888-4.296-7.975-8.392-12.271-12.271L354,184.78z"/>
	<path style="fill:#DE4C3C;" d="M127.436,411.336c3.888,4.296,7.975,8.383,12.271,12.271L158,405.313l-12.271-12.271
		L127.436,411.336z"/>
</g>
<g>
</g>
<g>
</g>
<g>
</g>
<g>
</g>
<g>
</g>
<g>
</g>
<g>
</g>
<g>
</g>
<g>
</g>
<g>
</g>
<g>
</g>
<g>
</g>
<g>
</g>
<g>
</g>
<g>
</g>
</svg>
