<?xml version="1.0" encoding="iso-8859-1"?>
<!-- Generator: Adobe Illustrator 19.0.0, SVG Export Plug-In . SVG Version: 6.00 Build 0)  -->
<svg version="1.1" id="Capa_1" xmlns="http://www.w3.org/2000/svg" xmlns:xlink="http://www.w3.org/1999/xlink" x="0px" y="0px"
	 viewBox="0 0 512 512" style="enable-background:new 0 0 512 512;" xml:space="preserve">
<g>
	<path style="fill:#E5E5E5;" d="M383.28,512H192.365c0-19.17,15.542-34.712,34.712-34.712h121.492
		C367.738,477.288,383.28,492.83,383.28,512z"/>
	<rect x="270.493" y="373.153" style="fill:#E5E5E5;" width="34.712" height="112.814"/>
</g>
<rect x="270.493" y="373.153" style="fill:#CFCFCF;" width="34.712" height="26.034"/>
<path style="fill:#E5E5E5;" d="M287.823,381.831L287.823,381.831C225.515,381.839,175,331.333,174.992,269.034
	c0-2.794,0.104-5.58,0.312-8.366l8.383-113.143L166.331,86.78h242.983l-17.356,60.746l8.383,113.143
	c4.608,62.134-42.019,116.241-104.153,120.849C293.403,381.726,290.608,381.831,287.823,381.831z"/>
<polygon style="fill:#CFCFCF;" points="268.323,177.152 150.789,61.822 163.068,49.551 280.594,164.881 "/>
<polygon style="fill:#DE4C3C;" points="105.585,138.847 105.585,8.678 240.094,8.678 "/>
<path style="fill:#CF4737;" d="M147.535,107.025c-3.463,0.009-6.595-2.039-7.975-5.207l-36.161-83.925
	c-1.9-4.4,0.13-9.511,4.539-11.403c2.161-0.937,4.617-0.946,6.786-0.035l84.584,35.432c4.426,1.848,6.508,6.942,4.651,11.368
	c-1.848,4.426-6.942,6.508-11.359,4.651l-64.746-27.127l27.648,64.139c1.892,4.4-0.139,9.502-4.539,11.394
	C149.878,106.782,148.715,107.025,147.535,107.025z"/>
<g>
	<rect x="365.95" style="fill:#FDB62F;" width="17.356" height="52.068"/>
	<rect x="348.594" y="17.356" style="fill:#FDB62F;" width="52.068" height="17.356"/>
	<rect x="305.205" y="34.712" style="fill:#FDB62F;" width="17.356" height="17.356"/>
	<path style="fill:#FDB62F;" d="M392.6,156.203H183.045l-7.741,104.465c-4.504,62.143,42.218,116.172,104.361,120.676
		s116.172-42.218,120.676-104.361c0.391-5.432,0.391-10.882,0-16.306L392.6,156.203z"/>
</g>
<g>
	<path style="fill:#FA962A;" d="M346.026,202.136c-3.384-3.384-8.886-3.384-12.271,0L229.62,306.271
		c-3.384,3.384-3.384,8.886,0,12.271c15.707,14.822,36.612,22.875,58.203,22.433c21.591,0.443,42.496-7.611,58.203-22.433
		c14.779-15.724,22.797-36.63,22.311-58.203C368.823,238.766,360.804,217.86,346.026,202.136z M339.361,221.08
		c7.801,11.585,11.854,25.288,11.62,39.259c0,2.282-0.095,4.547-0.286,6.777l-45.898-11.472L339.361,221.08z M248.546,311.886
		l34.573-34.573l11.472,45.889C278.39,324.938,262.093,320.937,248.546,311.886z M333.755,306.271
		c-6.292,6.049-13.885,10.587-22.19,13.277l-11.811-47.286l47.347,11.837C344.403,292.413,339.838,299.997,333.755,306.271z"/>
	<rect x="209.747" y="242.983" style="fill:#FA962A;" width="17.356" height="17.356"/>
	<rect x="235.781" y="208.271" style="fill:#FA962A;" width="17.356" height="17.356"/>
</g>
<g>
</g>
<g>
</g>
<g>
</g>
<g>
</g>
<g>
</g>
<g>
</g>
<g>
</g>
<g>
</g>
<g>
</g>
<g>
</g>
<g>
</g>
<g>
</g>
<g>
</g>
<g>
</g>
<g>
</g>
</svg>
