<?xml version="1.0" encoding="iso-8859-1"?>
<!-- Generator: Adobe Illustrator 19.0.0, SVG Export Plug-In . SVG Version: 6.00 Build 0)  -->
<svg version="1.1" id="Capa_1" xmlns="http://www.w3.org/2000/svg" xmlns:xlink="http://www.w3.org/1999/xlink" x="0px" y="0px"
	 viewBox="0 0 512 512" style="enable-background:new 0 0 512 512;" xml:space="preserve">
<path style="fill:#E5E5E5;" d="M278.069,476.69h-44.138V291.31h-35.31V476.69h-44.138c-19.5,0-35.31,15.81-35.31,35.31h194.207
	C313.379,492.5,297.569,476.69,278.069,476.69z"/>
<rect x="198.621" y="273.655" style="fill:#CFCFCF;" width="35.31" height="44.138"/>
<path style="fill:#E5E5E5;" d="M30.897,79.448v26.483c0.141,58.447,47.484,105.79,105.931,105.931v8.828
	c0,43.882,35.566,79.448,79.448,79.448s79.448-35.566,79.448-79.448v-8.828c58.447-0.141,105.79-47.484,105.931-105.931V79.448
	H30.897z"/>
<path style="fill:#87CED9;" d="M136.828,211.862v8.828c0,43.882,35.566,79.448,79.448,79.448s79.448-35.566,79.448-79.448v-8.828
	c41.401-0.009,78.989-24.152,96.221-61.793H40.607C57.838,187.71,95.426,211.853,136.828,211.862z"/>
<path style="fill:#71C4D1;" d="M271.793,150.069c-24.205,52.277-64.486,95.444-114.962,123.207
	c28.999,32.874,79.148,36.017,112.022,7.027c17.108-15.086,26.898-36.802,26.871-59.613v-8.828
	c41.401-0.009,78.989-24.152,96.221-61.793H271.793z"/>
<path style="fill:#FDB62F;" d="M401.655,0c-43.882,0-79.448,35.566-79.448,79.448s35.566,79.448,79.448,79.448
	s79.448-35.566,79.448-79.448C481.05,35.593,445.511,0.053,401.655,0z M410.483,18.361c10.196,1.465,19.862,5.473,28.107,11.652
	l-28.107,28.125V18.361z M392.828,55.058L369.346,26.88c7.159-4.423,15.157-7.318,23.481-8.519V55.058z M352.221,116.383
	c-6.179-8.245-10.187-17.911-11.652-28.107h39.777L352.221,116.383z M392.828,100.758v39.777
	c-10.196-1.465-19.862-5.473-28.107-11.652L392.828,100.758z M410.483,103.839l23.481,28.178
	c-7.159,4.423-15.157,7.318-23.481,8.519V103.839z M451.09,42.514c6.179,8.245,10.187,17.911,11.652,28.107h-39.777L451.09,42.514z
	 M355.752,38.197l27.048,32.424h-42.231C342.307,58.545,347.586,47.263,355.752,38.197z M447.559,120.7l-27.048-32.424h42.231
	C461.003,100.352,455.724,111.634,447.559,120.7z"/>
<g>
</g>
<g>
</g>
<g>
</g>
<g>
</g>
<g>
</g>
<g>
</g>
<g>
</g>
<g>
</g>
<g>
</g>
<g>
</g>
<g>
</g>
<g>
</g>
<g>
</g>
<g>
</g>
<g>
</g>
</svg>
