<?xml version="1.0" encoding="iso-8859-1"?>
<!-- Generator: Adobe Illustrator 19.0.0, SVG Export Plug-In . SVG Version: 6.00 Build 0)  -->
<svg version="1.1" id="Capa_1" xmlns="http://www.w3.org/2000/svg" xmlns:xlink="http://www.w3.org/1999/xlink" x="0px" y="0px"
	 viewBox="0 0 512 512" style="enable-background:new 0 0 512 512;" xml:space="preserve">
<polygon style="fill:#4398D1;" points="469.333,324.267 42.667,324.267 42.667,59.733 230.4,59.733 230.4,25.6 469.333,25.6 "/>
<rect x="42.667" y="128" style="fill:#DE4C3C;" width="426.667" height="145.067"/>
<rect x="59.733" y="25.6" style="fill:#FDB62F;" width="51.2" height="34.133"/>
<g>
	<path style="fill:#4398D1;" d="M8.533,162.133c0,9.429,7.637,17.067,17.067,17.067h17.067v-34.133H25.6
		C16.171,145.067,8.533,152.704,8.533,162.133z"/>
	<path style="fill:#4398D1;" d="M486.4,145.067h-17.067V179.2H486.4c9.429,0,17.067-7.637,17.067-17.067
		C503.467,152.704,495.829,145.067,486.4,145.067z"/>
</g>
<rect x="384" y="59.733" style="fill:#87CED9;" width="51.2" height="34.133"/>
<circle style="fill:#E5E5E5;" cx="119.467" cy="128" r="17.067"/>
<rect x="145.067" y="25.6" style="fill:#FDB62F;" width="51.2" height="34.133"/>
<path style="fill:#4398D1;" d="M409.6,180.77v-18.637c0-4.71-3.823-8.533-8.533-8.533s-8.533,3.823-8.533,8.533v18.637
	c-13.329,4.71-20.318,19.337-15.599,32.666c4.71,13.329,19.337,20.318,32.666,15.599c13.329-4.719,20.318-19.337,15.599-32.666
	C422.622,189.082,416.887,183.347,409.6,180.77z M401.067,213.333c-4.71,0-8.533-3.823-8.533-8.533c0-4.71,3.823-8.533,8.533-8.533
	s8.533,3.823,8.533,8.533C409.6,209.51,405.777,213.333,401.067,213.333z"/>
<rect x="162.133" y="85.333" style="fill:#87CED9;" width="25.6" height="17.067"/>
<path style="fill:#CFCFCF;" d="M401.067,486.4H34.133C15.283,486.4,0,471.117,0,452.267V162.133c0-4.71,3.823-8.533,8.533-8.533
	s8.533,3.823,8.533,8.533v290.133c0,9.429,7.637,17.067,17.067,17.067h366.933c9.429,0,17.067-7.637,17.067-17.067
	s-7.637-17.067-17.067-17.067h-204.8c-18.85,0-34.133-15.283-34.133-34.133s15.283-34.133,34.133-34.133h281.6
	c9.429,0,17.067-7.637,17.067-17.067V162.133c0-4.71,3.823-8.533,8.533-8.533c4.71,0,8.533,3.823,8.533,8.533v187.733
	c0,18.85-15.283,34.133-34.133,34.133h-281.6c-9.429,0-17.067,7.637-17.067,17.067c0,9.429,7.637,17.067,17.067,17.067h204.8
	c18.85,0,34.133,15.283,34.133,34.133S419.917,486.4,401.067,486.4z"/>
<path style="fill:#4398D1;" d="M153.6,170.667c-14.14,0-25.6,11.46-25.6,25.6s11.46,25.6,25.6,25.6h25.6v-51.2H153.6z"/>
<circle style="fill:#E5E5E5;" cx="256" cy="196.267" r="93.867"/>
<circle style="fill:#87CED9;" cx="256" cy="196.267" r="59.733"/>
<path style="fill:#71C4D1;" d="M283.426,143.241l-80.452,80.452c15.104,29.329,51.123,40.866,80.452,25.762
	s40.866-51.123,25.762-80.452C303.488,157.943,294.485,148.932,283.426,143.241z"/>
<g>
</g>
<g>
</g>
<g>
</g>
<g>
</g>
<g>
</g>
<g>
</g>
<g>
</g>
<g>
</g>
<g>
</g>
<g>
</g>
<g>
</g>
<g>
</g>
<g>
</g>
<g>
</g>
<g>
</g>
</svg>
