<?xml version="1.0" encoding="iso-8859-1"?>
<!-- Generator: Adobe Illustrator 19.0.0, SVG Export Plug-In . SVG Version: 6.00 Build 0)  -->
<svg version="1.1" id="Capa_1" xmlns="http://www.w3.org/2000/svg" xmlns:xlink="http://www.w3.org/1999/xlink" x="0px" y="0px"
	 viewBox="0 0 512 512" style="enable-background:new 0 0 512 512;" xml:space="preserve">
<rect x="326.621" y="52.966" style="fill:#146AA8;" width="97.103" height="79.448"/>
<polygon style="fill:#DE4C3C;" points="308.966,0 326.621,52.966 423.724,52.966 441.379,0 "/>
<g>
	<rect x="185.379" y="194.207" style="fill:#FDB62F;" width="141.241" height="70.621"/>
	<rect x="220.69" y="326.621" style="fill:#FDB62F;" width="70.621" height="35.31"/>
	<rect x="220.69" y="97.103" style="fill:#FDB62F;" width="70.621" height="35.31"/>
</g>
<rect x="88.276" y="52.966" style="fill:#146AA8;" width="97.103" height="79.448"/>
<rect x="150.069" y="52.966" style="fill:#126099;" width="35.31" height="79.448"/>
<polygon style="fill:#DE4C3C;" points="70.621,0 88.276,52.966 185.379,52.966 203.034,0 "/>
<polygon style="fill:#CF4737;" points="167.724,0 150.069,52.966 185.379,52.966 203.034,0 "/>
<rect x="388.414" y="52.966" style="fill:#126099;" width="35.31" height="79.448"/>
<polygon style="fill:#CF4737;" points="406.069,0 388.414,52.966 423.724,52.966 441.379,0 "/>
<polygon style="fill:#4398D1;" points="256,326.621 8.828,326.621 35.31,132.414 256,132.414 256,194.207 150.069,194.207 
	150.069,264.828 256,264.828 "/>
<g>
	<rect x="247.172" y="220.69" style="fill:#FA962A;" width="17.655" height="17.655"/>
	<rect x="211.862" y="220.69" style="fill:#FA962A;" width="17.655" height="17.655"/>
	<rect x="282.483" y="220.69" style="fill:#FA962A;" width="17.655" height="17.655"/>
</g>
<polygon style="fill:#146AA8;" points="35.31,326.621 8.828,459.034 185.379,459.034 158.897,326.621 "/>
<rect x="8.828" y="459.034" style="fill:#DE4C3C;" width="176.552" height="52.966"/>
<polygon style="fill:#146AA8;" points="353.103,326.621 326.621,459.034 503.172,459.034 476.69,326.621 "/>
<polygon style="fill:#126099;" points="476.69,326.621 423.724,326.621 450.207,459.034 503.172,459.034 "/>
<rect x="326.621" y="459.034" style="fill:#DE4C3C;" width="176.552" height="52.966"/>
<polygon style="fill:#3E8CC7;" points="256,326.621 503.172,326.621 476.69,132.414 256,132.414 256,194.207 353.103,194.207 
	353.103,264.828 256,264.828 "/>
<g>
	<polygon style="fill:#126099;" points="88.276,185.379 28.089,185.379 25.679,203.034 88.276,203.034 	"/>
	<polygon style="fill:#126099;" points="88.276,256 18.458,256 16.049,273.655 88.276,273.655 	"/>
	<polygon style="fill:#126099;" points="88.276,220.69 23.27,220.69 20.868,238.345 88.276,238.345 	"/>
	<polygon style="fill:#126099;" points="483.911,185.379 423.724,185.379 423.724,203.034 486.321,203.034 	"/>
	<polygon style="fill:#126099;" points="493.542,256 423.724,256 423.724,273.655 495.951,273.655 	"/>
	<polygon style="fill:#126099;" points="488.73,220.69 423.724,220.69 423.724,238.345 491.132,238.345 	"/>
</g>
<rect x="450.207" y="459.034" style="fill:#CF4737;" width="52.966" height="52.966"/>
<polygon style="fill:#126099;" points="158.897,326.621 105.931,326.621 132.414,459.034 185.379,459.034 "/>
<rect x="132.414" y="459.034" style="fill:#CF4737;" width="52.966" height="52.966"/>
<g>
</g>
<g>
</g>
<g>
</g>
<g>
</g>
<g>
</g>
<g>
</g>
<g>
</g>
<g>
</g>
<g>
</g>
<g>
</g>
<g>
</g>
<g>
</g>
<g>
</g>
<g>
</g>
<g>
</g>
</svg>
