<?xml version="1.0" encoding="iso-8859-1"?>
<!-- Generator: Adobe Illustrator 19.0.0, SVG Export Plug-In . SVG Version: 6.00 Build 0)  -->
<svg version="1.1" id="Capa_1" xmlns="http://www.w3.org/2000/svg" xmlns:xlink="http://www.w3.org/1999/xlink" x="0px" y="0px"
	 viewBox="0 0 512 512" style="enable-background:new 0 0 512 512;" xml:space="preserve">
<rect x="448.009" y="284.517" transform="matrix(-0.908 0.4191 -0.4191 -0.908 1015.899 468.0812)" style="fill:#75462E;" width="17.068" height="122.187"/>
<rect x="132.267" y="128" style="fill:#CFCFCF;" width="17.067" height="384"/>
<rect x="132.267" y="128" style="fill:#BFBFBF;" width="17.067" height="51.2"/>
<g>
	<rect x="4.267" y="384" style="fill:#8F5436;" width="494.933" height="34.133"/>
	<rect x="4.267" y="418.133" style="fill:#8F5436;" width="34.133" height="85.333"/>
	<rect x="465.067" y="418.133" style="fill:#8F5436;" width="34.133" height="85.333"/>
	<polygon style="fill:#8F5436;" points="465.067,281.6 354.133,384 302.933,384 439.467,256 	"/>
</g>
<path style="fill:#DE4C3C;" d="M277.333,162.133L277.333,162.133c-18.85-18.85-49.417-18.85-68.267,0l0,0
	c-18.85-18.85-49.417-18.85-68.267,0l0,0c-18.85-18.85-49.417-18.85-68.267,0l0,0c-18.85-18.85-49.417-18.85-68.267,0l0,0v-17.067
	C4.267,69.658,65.391,8.533,140.8,8.533l0,0c75.409,0,136.533,61.124,136.533,136.533V162.133z"/>
<g>
	<circle style="fill:#FDB62F;" cx="413.867" cy="93.867" r="42.667"/>
	<rect x="405.333" style="fill:#FDB62F;" width="17.067" height="25.6"/>
	<rect x="482.133" y="85.333" style="fill:#FDB62F;" width="25.6" height="17.067"/>
	<rect x="320" y="85.333" style="fill:#FDB62F;" width="25.6" height="17.067"/>
	
		<rect x="458.389" y="28.016" transform="matrix(-0.7071 0.7071 -0.7071 -0.7071 830.2142 -270.7868)" style="fill:#FDB62F;" width="25.6" height="17.067"/>
	
		<rect x="343.723" y="142.675" transform="matrix(-0.7071 0.7071 -0.7071 -0.7071 715.5435 6.0295)" style="fill:#FDB62F;" width="25.6" height="17.067"/>
	
		<rect x="462.673" y="138.345" transform="matrix(-0.7071 0.7071 -0.7071 -0.7071 911.275 -75.1719)" style="fill:#FDB62F;" width="17.067" height="25.6"/>
	
		<rect x="348.005" y="23.746" transform="matrix(-0.7071 0.7071 -0.7071 -0.7071 634.4913 -189.7226)" style="fill:#FDB62F;" width="17.067" height="25.6"/>
	<rect x="405.333" y="162.133" style="fill:#FDB62F;" width="17.067" height="25.6"/>
</g>
<path style="fill:#CF4737;" d="M209.69,27.307c-33.041,64.768-97.186,105.634-145.067,128.427c2.859,1.852,5.504,3.994,7.91,6.4
	c18.85-18.85,49.417-18.85,68.267,0c18.85-18.85,49.417-18.85,68.267,0c18.85-18.85,49.417-18.85,68.267,0v-17.067
	C277.333,96.58,251.571,51.738,209.69,27.307z"/>
<g>
</g>
<g>
</g>
<g>
</g>
<g>
</g>
<g>
</g>
<g>
</g>
<g>
</g>
<g>
</g>
<g>
</g>
<g>
</g>
<g>
</g>
<g>
</g>
<g>
</g>
<g>
</g>
<g>
</g>
</svg>
