<svg height="511pt" viewBox="0 -30 511.99883 511" width="511pt" xmlns="http://www.w3.org/2000/svg"><path d="m81.171875 451.582031c-11.789063-2.441406-19.371094-13.980469-16.929687-25.773437l19.699218-95.160156c.367188-1.769532.949219-3.488282 1.742188-5.113282l31.542968-64.859375c5.265626-10.832031 18.3125-15.339843 29.140626-10.074219 10.832031 5.265626 15.339843 18.3125 10.074218 29.144532l-30.351562 62.410156-19.144532 92.496094c-2.445312 11.804687-13.996093 19.367187-25.773437 16.929687zm0 0" fill="#5f6e9b"/><path d="m311.886719 442.960938-54.917969-79.859376c-2.984375-4.339843-4.222656-9.648437-3.46875-14.859374l15.238281-105.472657c1.65625-11.445312 12.269531-19.386719 23.71875-17.730469 11.445313 1.652344 19.382813 12.273438 17.730469 23.71875l-14.066406 97.363282 50.273437 73.109375c6.554688 9.53125 4.140625 22.566406-5.390625 29.121093-9.492187 6.527344-22.539062 4.175782-29.117187-5.390624zm0 0" fill="#a85a3b"/><path d="m205.246094 431.335938-4.902344-97.011719-33.183594-90.109375c-4.160156-11.300782 1.625-23.835938 12.925782-27.996094 11.300781-4.160156 23.832031 1.625 27.992187 12.925781l34.335937 93.222657c.757813 2.066406 1.203126 4.238281 1.3125 6.4375l5.070313 100.328124c.609375 12.027344-8.648437 22.269532-20.675781 22.875-12.039063.605469-22.269532-8.65625-22.875-20.671874zm0 0" fill="#414b82"/><path d="m257.101562 450.382812c-10.652343-4.5-15.640624-16.78125-11.140624-27.4375l75.738281-179.320312c4.496093-10.65625 16.78125-15.644531 27.433593-11.144531 10.652344 4.5 15.644532 16.785156 11.144532 27.4375l-75.738282 179.320312c-4.507812 10.671875-16.800781 15.636719-27.4375 11.144531zm0 0" fill="#ba6746"/><path d="m333.632812 193.082031c-.359374 0-.71875-.011719-1.078124-.03125l-54.042969-3.074219c-3.332031-.1875-6.554688-1.265624-9.332031-3.117187l-84.074219-56.128906c-8.597657-5.738281-10.914063-17.363281-5.175781-25.960938 5.742187-8.597656 17.363281-10.914062 25.960937-5.171875l79.835937 53.292969 48.949219 2.785156c10.324219.585938 18.210938 9.429688 17.625 19.75-.566406 9.957031-8.816406 17.65625-18.667969 17.65625zm0 0" fill="#f7a78d"/><path d="m269.691406 142.1875-63.796875-42.59375c-8.601562-5.738281-20.222656-3.421875-25.960937 5.175781-5.742188 8.597657-3.425782 20.222657 5.171875 25.960938l57.851562 38.621093c8.984375-8.984374 17.945313-17.992187 26.734375-27.164062zm0 0" fill="#64afff"/><path d="m213.484375 41.8125c0 22.816406-18.496094 41.3125-41.3125 41.3125s-41.3125-18.496094-41.3125-41.3125 18.496094-41.3125 41.3125-41.3125 41.3125 18.496094 41.3125 41.3125zm0 0" fill="#ffb69e"/><g fill="#ba6746"><path d="m368.816406 56.65625c0 21.914062-17.761718 39.675781-39.675781 39.675781s-39.675781-17.761719-39.675781-39.675781 17.761718-39.675781 39.675781-39.675781 39.675781 17.761719 39.675781 39.675781zm0 0"/><path d="m493.03125 126.339844c-40.695312-4.824219-136.472656-16.175782-136.472656-16.175782l-77.390625-4.625-16.636719 168.164063 104.484375 4.851563-8.195313-131.953126 129.972657 15.441407c10.691406 1.269531 20.097656-7.082031 20.097656-17.851563-.003906-9.105468-6.8125-16.773437-15.859375-17.851562zm0 0"/><path d="m185.222656 255.820312c-4.433594 0-8.875-1.613281-12.371094-4.875-7.324218-6.832031-7.726562-18.3125-.894531-25.640624l46.546875-49.921876 46.273438-62.496093c5.964844-8.050781 17.324218-9.746094 25.375-3.78125 8.054687 5.960937 9.746094 17.320312 3.785156 25.375l-46.886719 63.320312c-.40625.550781-.84375 1.074219-1.308593 1.574219l-47.246094 50.671875c-3.574219 3.832031-8.417969 5.773437-13.273438 5.773437zm0 0"/></g><path d="m502.007812 256.390625c-29.261718 5.144531-78.714843 9.273437-114.3125-11.574219-14.933593-8.746094-24.300781-24.578125-25.375-41.847656l-3.5-56.363281 29.953126 3.558593 4.457031-35.675781c-27.035157-3.183593-36.671875-4.304687-36.671875-4.304687l-19.546875-1.1875c-.363281 8.804687-8.648438 16.074218-17.300781 16.074218-9.710938 0-16.902344-7.9375-17.320313-17.320312-.011719-.273438.007813-.546875.011719-.820312l-20.925782-1.253907c-.65625-.074219-1.316406-.109375-1.972656-.117187l-.335937-.019532-.003907.023438c-5.480468.0625-10.871093 2.578125-14.386718 7.324219l-23.601563 31.875 28.945313 21.878906 3.464844-4.675781-4.269532 43.15625c-1.246094 12.601562-6.421875 24.46875-14.710937 34.042968-13.25 15.296876-31.8125 40.707032-41.855469 72.15625-2.421875 7.574219 4.542969 14.824219 12.199219 12.671876 27.4375-7.710938 83.730469-17.855469 133.648437 8.953124 55.21875 29.648438 120.871094-29.78125 151.121094-62.484374 5.511719-5.957032.28125-15.476563-7.710938-14.070313zm0 0" fill="#fa503c"/><path d="m193.863281 95.941406-77.6875-4.136718-.046875-.003907v.003907c-5.992187-.082032-11.917968 2.707031-15.609375 7.988281l-47.191406 67.496093-48.300781 51.800782c-7.050782 7.5625-6.636719 19.40625.925781 26.457031 7.558594 7.046875 19.402344 6.636719 26.453125-.925781l49.199219-52.765625c.597656-.640625 1.148437-1.320313 1.648437-2.039063l30.347656-43.402344-6.203124 133.933594 66.832031 3.476563c21.292969 1.105469 39.417969-15.320313 40.402343-36.617188l5.648438-121.945312c.800781-15.394531-11.027344-28.519531-26.417969-29.320313zm0 0" fill="#ffb69e"/><path d="m193.863281 95.941406-6.511719-.347656c-.167968 10.53125-10.050781 19.308594-20.355468 19.308594-11.402344 0-19.847656-9.324219-20.34375-20.34375-.015625-.378906-.015625-.757813-.007813-1.132813l-30.515625-1.625v.003907c-5.992187-.082032-11.917968 2.710937-15.609375 7.992187l-28.808593 41.199219c8.003906 7.574218 21.332031 20.246094 27.335937 26.234375l14.554687-20.816407-6.199218 133.933594 66.832031 3.476563c21.289063 1.105469 39.414063-15.320313 40.402344-36.617188l5.648437-121.945312c.796875-15.394531-11.03125-28.519531-26.421875-29.320313zm0 0" fill="#64afff"/></svg>