<svg height="512pt" viewBox="0 -29 512.00191 512" width="512pt" xmlns="http://www.w3.org/2000/svg"><path d="m229.234375 384.253906-2.519531-49.894531c-5.875 1.199219-11.117188 2.507813-15.507813 3.742187-9.679687 2.722657-19.546875-1.070312-25.128906-8.710937-4.429687-6.066406-5.65625-13.664063-3.367187-20.839844 5.285156-16.546875 12.703124-31.476562 20.566406-44.328125l-6.023438-16.351562 4.402344-94.984375 10.410156 6.953125 2.722656-4.078125v.042969l19.53125-26.378907-45.195312-30.925781c-4.066406-2.785156-8.882812-4.277344-13.816406-4.277344h-56.09375c-7.964844 0-15.433594 3.878906-20.015625 10.398438l-45.679688 65.003906-48.269531 51.769531c-6.976562 7.480469-7.078125 19.285157.175781 26.5 7.59375 7.550781 19.839844 7.242188 27.054688-.5l47.59375-51.042969c1.496093-1.648437 2.402343-2.441406 3.539062-4.070312l10.621094-15.1875-4 86.378906c-8.023437 16.5-25.683594 52.8125-30.835937 63.410156-.796876 1.632813-1.386719 3.363282-1.757813 5.144532l-19.808594 95.699218c-2.453125 11.859376 5.167969 23.460938 17.027344 25.917969 11.832031 2.449219 23.457031-5.144531 25.917969-17.027343l19.253906-93.019532c6.015625-12.371094 23.5-48.324218 29.222656-60.085937l35.0625 1.824219c5.820313 15.800781 13.085938 35.523437 18.554688 50.378906l4.929687 97.566406c.777344 15.40625 16.6875 24.933594 30.46875 19.082031-6.585937-9.765625-8.273437-22.558593-3.347656-34.222656zm0 0"/><path d="m152.382812 83.042969c22.71875 1.179687 42.449219-16.261719 43.648438-39.335938 1.191406-22.914062-16.417969-42.457031-39.332031-43.6484372-22.914063-1.1914058-42.460938 16.4179682-43.652344 39.3320312-1.195313 23.042969 16.578125 42.46875 39.335937 43.652344zm0 0"/><path d="m238.648438 332.261719-2.316407 16.03125c-.667969 4.601562.214844 9.277343 2.472657 13.304687l13.03125-30.855468c-4.582032.382812-8.992188.902343-13.1875 1.519531zm0 0"/><path d="m306.714844 387.613281-19.449219 46.046875 7.785156 11.316406c6.609375 9.609376 19.726563 11.992188 29.28125 5.417969 9.582031-6.589843 12.007813-19.699219 5.417969-29.28125zm0 0"/><path d="m268.402344 330.957031-39.65625 93.890625c-4.523438 10.710938.492187 23.066406 11.207031 27.59375 10.691406 4.511719 23.058594-.472656 27.589844-11.207031l44.027343-104.234375c-13.347656-3.949219-27.78125-5.972656-43.167968-6.042969zm0 0"/><path d="m352.300781 56.476562c0 22.039063-17.863281 39.902344-39.898437 39.902344-22.039063 0-39.902344-17.863281-39.902344-39.902344 0-22.035156 17.863281-39.902343 39.902344-39.902343 22.035156 0 39.898437 17.867187 39.898437 39.902343zm0 0"/><path d="m496.050781 129.699219c-104.140625-12.351563-176.183593-20.09375-207.609375-23.386719-11-1.152344-21.78125 3.601562-28.359375 12.492188l-44.660156 60.386718-1.808594 1.9375-2.605469 56.304688 31.808594-34.117188c.46875-.503906.90625-1.03125 1.316406-1.582031l10.378907-14.015625c-.578125 12.5625-1.089844 23.71875-1.667969 36.292969 0 0-40.65625 35.851562-57.492188 88.578125-2.433593 7.621094 4.574219 14.90625 12.269532 12.742187 14.03125-3.945312 35.570312-8.519531 59.953125-8.519531 23.5625 0 49.785156 4.273438 74.457031 17.523438 10.539062 5.660156 21.464844 8.089843 32.445312 8.089843 46.875 0 94.886719-44.289062 119.535157-70.933593 5.542969-5.988282.273437-15.558594-7.761719-14.144532-12.445312 2.1875-28.527344 4.191406-45.644531 4.191406-33.820313 0-71.699219-7.824218-93.6875-37.527343.273437-5.960938 3.039062-66.175781 3.453125-75.210938l141.417968 16.800781c.722657.085938 1.441407.128907 2.15625.128907 9.03125 0 16.835938-6.757813 17.929688-15.945313 1.175781-9.917968-5.90625-18.910156-15.824219-20.085937zm0 0"/></svg>