<?xml version="1.0" encoding="iso-8859-1"?>
<!-- Generator: Adobe Illustrator 19.0.0, SVG Export Plug-In . SVG Version: 6.00 Build 0)  -->
<svg version="1.1" id="Layer_1" xmlns="http://www.w3.org/2000/svg" xmlns:xlink="http://www.w3.org/1999/xlink" x="0px" y="0px"
	 viewBox="0 0 462.477 462.477" style="enable-background:new 0 0 462.477 462.477;" xml:space="preserve">
<g>
	<rect x="175.135" y="106.967" style="fill:#333333;" width="112.205" height="51.552"/>
	<path style="fill:#FCCF92;" d="M333.443,264.579c0.13,8.6-0.8,16.97-2.67,24.97c-0.66,2.81-4.79,2.34-4.79-0.55v-0.22
		c0-35.49-19.53-66.43-48.42-82.65v4.9c0,11.74-8.66,21.44-19.93,23.12v11.12c0,7.61,3.21,14.87,8.84,19.99
		c8.88,8.06,14.45,19.69,14.45,32.63c0,0,0.02,0.39,0.05,1.14c0.39,9,2,70.01-21.61,137.7c-0.18,0.53-0.37,1.07-0.56,1.6
		c-0.72,2.03-1.46,4.08-2.23,6.12c-1.96,5.24-4.08,10.51-6.37,15.79c-1.47,3.4-6.47,2.78-7.08-0.87c-0.69-4.13-1.49-9.18-2.32-14.92
		c-0.29-1.96-0.58-4.01-0.88-6.12c-0.03-0.19-0.05-0.38-0.08-0.58c-4.42-31.91-9.15-79.49-3.61-109.97h-9.98
		c5.54,30.48,0.81,78.06-3.62,109.97c-0.03,0.2-0.05,0.39-0.08,0.58c-0.29,2.11-0.58,4.16-0.88,6.12
		c-0.83,5.74-1.63,10.79-2.32,14.92c-0.6,3.65-5.6,4.27-7.07,0.87c-2.29-5.28-4.41-10.55-6.37-15.79c-0.77-2.04-1.51-4.09-2.23-6.12
		c-0.19-0.53-0.38-1.07-0.56-1.6c-23.59-67.64-22.01-128.62-21.62-137.68c0.03-0.77,0.05-1.16,0.05-1.16
		c0-12.94,5.58-24.57,14.45-32.63c5.64-5.12,8.85-12.38,8.85-19.99v-11.12c-11.28-1.68-19.93-11.38-19.93-23.12v-4.91
		c-28.9,16.23-48.43,47.16-48.43,82.66v0.22c0.01,2.88-4.11,3.42-4.77,0.61c-1.76-7.52-2.7-15.36-2.7-23.42
		c0-49.38,35.03-90.59,81.59-100.13c5.71-1.17,10.18-5.62,11.37-11.32l0.13-0.64c2.98,0.31,6.03,0.47,9.13,0.47s6.15-0.15,9.12-0.47
		l0.16,0.76c1.18,5.66,5.59,10.08,11.25,11.3C297.063,175.909,332.713,217.119,333.443,264.579z"/>
	<g>
		<circle style="fill:#CEAA80;" cx="174.767" cy="92.175" r="14.791"/>
		<circle style="fill:#CEAA80;" cx="287.713" cy="92.175" r="14.791"/>
	</g>
	<path style="fill:#FCCF92;" d="M292.113,102.769c0,30.51-22.46,48.31-51.75,51.33c-2.97,0.32-6.02,0.47-9.12,0.47
		c-3.1,0-6.15-0.16-9.13-0.47c-1.49-0.15-2.97-0.34-4.42-0.57c-27.1-4.29-47.33-21.8-47.33-50.76c0-18.37,8.13-38.44,20.98-52.87
		c10.69-12,24.65-20.11,39.9-20.11c1.06,0,2.11,0.04,3.15,0.11c20.75,1.52,38.74,17.85,48.91,37.99
		C288.893,78.979,292.113,91.209,292.113,102.769z"/>
	<path style="fill:#FFFFFF;" d="M243.197,100.881c0,9.697-5.352,17.558-11.954,17.558c-6.602,0-11.954-7.861-11.954-17.558H243.197z
		"/>
	<g>
		<path d="M210.892,94.344c0,0-0.303-0.04-0.778-0.17c-0.234-0.078-0.532-0.14-0.829-0.189c-0.299-0.06-0.603-0.133-0.969-0.187
			c-0.345-0.076-0.715-0.135-1.097-0.184c-0.368-0.082-0.776-0.08-1.158-0.154c-0.403-0.01-0.794-0.077-1.2-0.08
			c-0.401-0.034-0.808-0.022-1.213-0.038c-0.405,0.017-0.811,0.008-1.212,0.041c-0.406,0.007-0.797,0.069-1.199,0.082
			c-0.382,0.074-0.79,0.073-1.157,0.155c-0.382,0.048-0.752,0.107-1.097,0.183c-0.361,0.049-0.683,0.133-0.987,0.198
			c-0.309,0.06-0.594,0.111-0.817,0.178c-0.461,0.116-0.775,0.165-0.775,0.165s0.059-0.289,0.251-0.763
			c0.092-0.242,0.22-0.528,0.416-0.818c0.187-0.301,0.415-0.637,0.719-0.948c0.148-0.162,0.311-0.322,0.481-0.492
			c0.18-0.151,0.376-0.296,0.578-0.452c0.401-0.321,0.882-0.551,1.382-0.808c0.517-0.196,1.06-0.427,1.642-0.519
			c0.574-0.15,1.177-0.163,1.776-0.201c0.599,0.039,1.201,0.054,1.776,0.204c0.581,0.096,1.125,0.322,1.641,0.521
			c0.499,0.257,0.981,0.488,1.381,0.809c0.202,0.156,0.398,0.299,0.578,0.452c0.17,0.169,0.334,0.329,0.481,0.491
			c0.299,0.306,0.545,0.654,0.737,0.96c0.208,0.3,0.323,0.576,0.404,0.807C210.822,94.047,210.892,94.344,210.892,94.344z"/>
		<path d="M266.083,94.344c0,0-0.303-0.04-0.778-0.17c-0.234-0.078-0.532-0.14-0.829-0.189c-0.299-0.06-0.603-0.133-0.969-0.187
			c-0.345-0.076-0.715-0.135-1.097-0.184c-0.368-0.082-0.776-0.08-1.158-0.154c-0.403-0.01-0.794-0.077-1.2-0.08
			c-0.401-0.034-0.808-0.022-1.213-0.038c-0.405,0.017-0.811,0.008-1.212,0.041c-0.406,0.007-0.797,0.069-1.199,0.082
			c-0.382,0.074-0.79,0.073-1.157,0.155c-0.382,0.048-0.752,0.107-1.097,0.183c-0.361,0.049-0.683,0.133-0.987,0.198
			c-0.309,0.06-0.594,0.111-0.817,0.178c-0.461,0.116-0.775,0.165-0.775,0.165s0.059-0.289,0.251-0.763
			c0.092-0.242,0.22-0.528,0.416-0.818c0.187-0.301,0.415-0.637,0.719-0.948c0.148-0.162,0.311-0.322,0.481-0.492
			c0.18-0.151,0.376-0.296,0.578-0.452c0.401-0.321,0.882-0.551,1.382-0.808c0.517-0.196,1.06-0.427,1.642-0.519
			c0.574-0.15,1.177-0.163,1.776-0.201c0.599,0.039,1.201,0.054,1.776,0.204c0.581,0.096,1.125,0.322,1.641,0.521
			c0.499,0.257,0.981,0.488,1.381,0.809c0.202,0.156,0.398,0.299,0.578,0.452c0.17,0.169,0.334,0.329,0.481,0.491
			c0.299,0.306,0.545,0.654,0.737,0.96c0.208,0.3,0.323,0.576,0.404,0.807C266.013,94.047,266.083,94.344,266.083,94.344z"/>
	</g>
	<path style="opacity:0.29;fill:#4D4D4D;enable-background:new    ;" d="M244.348,161.995c-4.07,1.53-8.47,2.36-13.07,2.36
		c-4.62,0-9.05-0.84-13.14-2.38c1.93-1.95,3.3-4.45,3.88-7.24l0.13-0.64c2.98,0.31,6.03,0.47,9.13,0.47s6.15-0.15,9.12-0.47
		l0.16,0.76C241.128,157.605,242.468,160.055,244.348,161.995z"/>
	<path style="fill:#E6E6E6;" d="M282.403,178.889l-4.84,27.23v4.91c0,11.74-8.66,21.44-19.93,23.12v11.12
		c0,7.61,3.21,14.87,8.84,19.99h-70.47c5.64-5.12,8.85-12.38,8.85-19.99v-11.12c-11.28-1.68-19.93-11.38-19.93-23.12v-4.91
		l-4.84-27.23l51.29,18.5L282.403,178.889z"/>
	<path style="opacity:0.29;fill:#4D4D4D;enable-background:new    ;" d="M282.403,178.889l-3.85,21.64l-0.99,5.59v0.29
		c-2.4-0.31-4.89-0.73-6.57,0.16c-2.62,1.39-3.61,6.57-5.95,8.88c-0.42,0.42-0.88,0.75-1.41,0.94c-1.42,0.52-3.19-0.07-5.02-0.84
		c-2.41-1-4.94-2.32-6.96-1.85c-2.48,0.58-4.5,4.19-6.81,6.26c-0.86,0.77-1.76,1.33-2.74,1.44c-1.2,0.13-2.46-0.47-3.73-1.31
		c-2.42-1.6-4.93-4.08-7.31-4.08c-2.32,0-4.74,2.34-7.1,3.95c-1.34,0.91-2.66,1.58-3.93,1.44c-0.93-0.1-1.78-0.61-2.6-1.31
		c-2.37-2.05-4.42-5.8-6.96-6.39c-1.95-0.45-4.37,0.76-6.71,1.75c-1.92,0.82-3.79,1.48-5.27,0.94c-0.48-0.17-0.9-0.46-1.29-0.82
		c-2.42-2.25-3.41-7.59-6.07-9c-1.6-0.85-3.93-0.51-6.21-0.21v-0.24l-1-5.63l-3.84-21.6l51.29,18.5L282.403,178.889z"/>
	<path style="fill:#F9CA48;" d="M298.443,183.329c-0.06,0.11-0.13,0.21-0.21,0.31c-0.94,1.21-2.81,1.75-4.8,2.23
		c-2.36,0.57-4.89,1.05-6.19,2.46c-2.37,2.55-1.05,9.38-3.99,11.58c-1.14,0.85-2.85,0.83-4.7,0.62c-2.68-0.29-5.65-0.98-7.56,0.04
		c-3.09,1.64-3.92,8.56-7.36,9.82c-3.28,1.2-8.42-3.51-11.98-2.69c-3.41,0.79-5.93,7.3-9.55,7.7c-3.49,0.39-7.4-5.39-11.04-5.39
		s-7.54,5.78-11.03,5.39c-3.62-0.4-6.14-6.91-9.56-7.7c-3.56-0.82-8.7,3.89-11.98,2.69c-3.44-1.26-4.27-8.18-7.36-9.82
		c-1.83-0.97-4.63-0.39-7.21-0.08c-1.98,0.24-3.84,0.32-5.05-0.58c-2.94-2.2-1.62-9.03-3.99-11.58c-1.4-1.51-4.19-1.95-6.69-2.59
		c-1.88-0.46-3.59-1.04-4.41-2.25c-0.03-0.05-0.07-0.1-0.1-0.16l0.35-0.93c10.58-9.25,23.08-16.35,36.83-20.62
		c0.24,2.28,0.72,4.39,1.44,6.35c0.14,0.43,0.31,0.85,0.49,1.26c2,4.73,5.36,8.44,9.63,11.09c5.22,3.25,11.8,4.91,18.95,4.91
		c7.46,0,14.3-1.8,19.61-5.31c3.89-2.58,6.96-6.07,8.86-10.44c0.19-0.4,0.35-0.81,0.51-1.22c0.72-1.94,1.23-4.05,1.49-6.31
		c13.42,4.4,25.75,11.59,36.25,20.84L298.443,183.329z"/>
	<g style="opacity:0.29;">
		<path style="fill:#4D4D4D;" d="M195.23,411.111c2.254,8.366,4.865,16.936,7.892,25.618c6.5,0.52,13,0.86,19.51,1.02
			c1.118-8.056,2.256-17.112,3.242-26.638H195.23z"/>
		<path style="fill:#4D4D4D;" d="M236.607,411.111c0.985,9.526,2.12,18.582,3.236,26.638c6.51-0.16,13.02-0.5,19.52-1.02
			c3.028-8.682,5.639-17.251,7.893-25.618H236.607z"/>
	</g>
	<path style="opacity:0.29;fill:#4D4D4D;enable-background:new    ;" d="M300.372,191.809c-2.43,0.6-5.1,1.06-6.45,2.52
		c-2.37,2.55-1.05,9.38-3.99,11.58c-2.68,2-8.56-0.83-11.88,0.49c-0.16-0.1-0.33-0.19-0.49-0.28l0.99-5.59
		c1.85,0.21,3.56,0.23,4.7-0.62c2.94-2.2,1.62-9.03,3.99-11.58c1.3-1.41,3.83-1.89,6.19-2.46
		C295.833,187.749,298.152,189.729,300.372,191.809z"/>
	<path style="opacity:0.29;fill:#4D4D4D;enable-background:new    ;" d="M184.923,206.119c-0.16,0.09-0.33,0.18-0.49,0.28
		c-3.32-1.32-9.2,1.51-11.88-0.49c-2.94-2.2-1.62-9.03-3.99-11.58c-1.49-1.61-4.59-2.01-7.21-2.71c2.19-2.07,4.47-4.02,6.84-5.88
		c2.5,0.64,5.29,1.08,6.69,2.59c2.37,2.55,1.05,9.38,3.99,11.58c1.21,0.9,3.07,0.82,5.05,0.58L184.923,206.119z"/>
	<path style="fill:#F9CA48;" d="M333.402,407.889c-33.3,10.1-67.73,15.16-102.16,15.16s-68.86-5.06-102.16-15.16
		c0,0,7.58-4.55,16.13-13.31c1.28-1.3,2.57-2.7,3.87-4.19c2-2.3,3.98-4.8,5.9-7.53c0.07-0.1,0.14-0.2,0.21-0.3
		c2.56-3.68,4.98-7.74,7.05-12.19c0.04-0.09,0.08-0.18,0.12-0.27c1.88-4.04,3.47-8.4,4.62-13.07c1.33-5.32,2.1-18.336,2.1-24.437
		c0-44,26.92-67.334,26.92-67.334h70.48c0,0,26.92,23.334,26.92,67.334c0,6.1,0.77,19.116,2.1,24.437
		c1.15,4.67,2.74,9.03,4.62,13.07c0.04,0.09,0.08,0.18,0.12,0.27c2.07,4.45,4.49,8.51,7.05,12.19c0.07,0.1,0.14,0.2,0.21,0.3
		c3.16,4.51,6.53,8.41,9.77,11.72C325.823,403.339,333.402,407.889,333.402,407.889z"/>
	<path style="fill:#588CE8;" d="M317.273,394.579c-28.31,7.02-57.17,10.52-86.03,10.52c-28.86,0-57.72-3.5-86.03-10.52
		c1.28-1.3,2.57-2.7,3.87-4.19c2.07-2.38,4.13-4.99,6.11-7.83c50.16,11.38,101.94,11.38,152.1,0
		C310.513,387.189,313.963,391.199,317.273,394.579z"/>
	<path style="fill:#EA6157;" d="M300.243,370.369c-22.81,4.49-45.9,6.73-69,6.73s-46.19-2.24-69-6.73
		c1.93-4.12,3.56-8.57,4.74-13.34c42.52,8.09,86,8.09,128.52,0C296.683,361.799,298.313,366.249,300.243,370.369z"/>
	<path style="fill:#4C83D3;" d="M258.976,322.889h-10.609c-2.211,0-3.954-1.882-3.784-4.087l4.339-56.413h9.5l4.339,56.413
		C262.93,321.007,261.187,322.889,258.976,322.889z"/>
	<path style="fill:#588CE8;" d="M251.976,306.889h-10.609c-2.211,0-3.954-1.882-3.784-4.087l4.339-56.413h9.5l4.339,56.413
		C255.93,305.007,254.187,306.889,251.976,306.889z"/>
	<path style="fill:#588CE8;" d="M266.473,265.259h-70.47c5.64-5.12,8.85-12.38,8.85-19.99v-11.12h52.78v11.12
		C257.633,252.879,260.843,260.139,266.473,265.259z"/>
	<circle style="fill:#333333;" cx="212.157" cy="40" r="40"/>
	<path style="fill:#333333;" d="M283.303,67.889c-2.87,0.65-5.85,1-8.92,1c-21.76,0-39.45-17.37-39.99-38.99
		C255.143,31.419,273.133,47.749,283.303,67.889z"/>
	<path style="fill:#EA6157;" d="M303.745,60c0-3.771-3.057-6.828-6.828-6.828c-0.377,0-0.745,0.039-1.105,0.097
		c0.297-0.213,0.584-0.446,0.85-0.713c2.666-2.666,2.666-6.989,0-9.656c-2.666-2.666-6.989-2.666-9.656,0
		c-0.267,0.267-0.499,0.554-0.713,0.85c0.059-0.361,0.097-0.728,0.097-1.105c0-3.771-3.057-6.828-6.828-6.828
		s-6.828,3.057-6.828,6.828c0,0.377,0.039,0.745,0.097,1.105c-0.213-0.297-0.446-0.584-0.713-0.85c-2.666-2.666-6.989-2.666-9.656,0
		c-2.666,2.666-2.666,6.989,0,9.656c0.267,0.267,0.554,0.499,0.85,0.713c-0.361-0.059-0.728-0.097-1.105-0.097
		c-3.771,0-6.828,3.057-6.828,6.828s3.057,6.828,6.828,6.828c0.377,0,0.745-0.038,1.105-0.097c-0.297,0.213-0.584,0.446-0.85,0.713
		c-2.666,2.666-2.666,6.989,0,9.656c2.666,2.666,6.989,2.666,9.656,0c0.267-0.267,0.499-0.554,0.713-0.85
		c-0.059,0.361-0.097,0.728-0.097,1.105c0,3.771,3.057,6.828,6.828,6.828s6.828-3.057,6.828-6.828c0-0.377-0.038-0.745-0.097-1.105
		c0.213,0.297,0.446,0.584,0.713,0.851c2.666,2.666,6.989,2.666,9.656,0c2.666-2.666,2.666-6.989,0-9.656
		c-0.267-0.267-0.554-0.499-0.85-0.713c0.361,0.059,0.728,0.097,1.105,0.097C300.688,66.828,303.745,63.771,303.745,60z"/>
	<circle style="fill:#F9CA48;" cx="279.564" cy="60" r="8.959"/>
	<path style="fill:#588CE8;" d="M205.913,444.449h15.76c-0.83,5.74-1.63,10.79-2.32,14.92c-0.6,3.65-5.6,4.27-7.07,0.87
		C209.993,454.959,207.873,449.689,205.913,444.449z"/>
	<path style="fill:#588CE8;" d="M256.573,444.449c-1.96,5.24-4.08,10.51-6.37,15.79c-1.47,3.4-6.47,2.78-7.08-0.87
		c-0.69-4.13-1.49-9.18-2.32-14.92H256.573z"/>
</g>
<g>
</g>
<g>
</g>
<g>
</g>
<g>
</g>
<g>
</g>
<g>
</g>
<g>
</g>
<g>
</g>
<g>
</g>
<g>
</g>
<g>
</g>
<g>
</g>
<g>
</g>
<g>
</g>
<g>
</g>
</svg>
