<svg height="512pt" viewBox="-28 0 512 512" width="512pt" xmlns="http://www.w3.org/2000/svg"><path d="m346.8125 401.234375-85.289062-30.101563c-13.207032-4.660156-22.039063-17.144531-22.039063-31.148437v-42.695313h-99.097656v42.695313c0 14.003906-8.832031 26.488281-22.039063 31.148437l-85.289062 30.101563c-19.8125 6.992187-33.058594 25.71875-33.058594 46.726563v39.265624c0 13.679688 11.09375 24.773438 24.773438 24.773438h330.324218c13.679688 0 24.773438-11.09375 24.773438-24.773438v-39.265624c0-21.007813-13.246094-39.734376-33.058594-46.726563zm0 0" fill="#e3aa75"/><path d="m181.679688 379.871094h16.515624v66.066406h-16.515624zm0 0" fill="#c38c66"/><path d="m189.9375 396.386719c32.417969 0 61.464844-7.972657 83.324219-21.109375l-11.738281-4.144532c-8.628907-3.046874-15.332032-9.460937-18.980469-17.429687-14.460938 5.910156-32.367188 9.652344-52.605469 9.652344-20.242188 0-38.148438-3.742188-52.609375-9.652344-3.648437 7.96875-10.347656 14.382813-18.980469 17.429687l-11.738281 4.144532c21.859375 13.136718 50.90625 21.109375 83.328125 21.109375zm0 0" fill="#ffd064"/><path d="m242.542969 353.703125c-14.460938 5.910156-32.367188 9.652344-52.605469 9.652344-20.242188 0-38.148438-3.742188-52.609375-9.652344-2.347656 5.132813-6.070313 9.492187-10.648437 12.851563 17.164062 8.3125 39.203124 13.316406 63.257812 13.316406 24.050781 0 46.089844-5.003906 63.253906-13.316406-4.578125-3.359376-8.300781-7.71875-10.648437-12.851563zm0 0" fill="#ffc250"/><path d="m189.9375 495.484375c-78.992188 0-148.421875-24.425781-188.03125-61.144531-1.238281 4.347656-1.90625 8.941406-1.90625 13.621094v39.265624c0 13.679688 11.09375 24.773438 24.773438 24.773438h330.324218c13.683594 0 24.773438-11.09375 24.773438-24.773438v-39.265624c0-4.679688-.667969-9.285157-1.910156-13.632813-39.609376 36.71875-109.035157 61.15625-188.023438 61.15625zm0 0" fill="#c38c66"/><path d="m442.609375 256.542969c2.609375.757812 5.164063-1.566407 4.65625-4.230469-4.652344-24.40625-16.457031-48.824219-35.398437-69.664062-18.941407-20.84375-42.125-34.917969-65.972657-41.875-2.609375-.761719-5.164062 1.566406-4.65625 4.230468 4.652344 24.402344 16.457031 48.820313 35.398438 69.664063 18.941406 20.839843 42.125 34.917969 65.972656 41.875zm0 0" fill="#ffc269"/><path d="m447.265625 252.3125c-4.652344-24.40625-16.457031-48.824219-35.398437-69.664062-18.941407-20.84375-42.125-34.917969-65.972657-41.875-1.304687-.378907-2.59375.011718-3.496093.832031l103.707031 114.109375c.902343-.824219 1.414062-2.070313 1.160156-3.402344zm0 0" fill="#ffa95f"/><path d="m395.902344 187.921875-78.308594-86.246094 4.121094 29.078125 61.960937 68.265625c1.628907 1.796875 3.871094 2.707031 6.113281 2.707031 1.984376 0 3.96875-.707031 5.546876-2.144531 3.378906-3.0625 3.628906-8.285156.566406-11.660156zm0 0" fill="#b57f5f"/><path d="m455.210938 112.84375c1.96875-.8125 2.394531-3.492188.777343-4.875-14.808593-12.664062-34.003906-21.835938-55.816406-25.320312-21.8125-3.484376-42.910156-.746094-60.925781 6.679687-1.96875.8125-2.394532 3.488281-.777344 4.871094 14.808594 12.667969 34 21.839843 55.816406 25.324219 21.8125 3.480468 42.90625.742187 60.925782-6.679688zm0 0" fill="#ffc269"/><path d="m455.988281 107.96875c-14.808593-12.664062-34.003906-21.835938-55.816406-25.320312-21.8125-3.484376-42.910156-.746094-60.925781 6.679687-.984375.40625-1.582032 1.277344-1.734375 2.222656l119.433593 19.070313c.148438-.945313-.148437-1.960938-.957031-2.652344zm0 0" fill="#ffa95f"/><path d="m387.34375 91.640625-82.191406-11.8125-2.355469 16.347656 82.191406 11.8125c.40625.058594.800781.085938 1.1875.085938 4.039063 0 7.570313-2.96875 8.167969-7.085938.644531-4.511719-2.492188-8.695312-7-9.347656zm0 0" fill="#b57f5f"/><path d="m140.386719 319.757812c15.246093 6.738282 32 10.566407 49.546875 10.566407s34.300781-3.824219 49.550781-10.566407v-22.46875h-99.097656zm0 0" fill="#d29b6e"/><path d="m305.550781 206.453125-21.109375 98.503906c-2.4375 11.371094-3.667968 22.972657-3.667968 34.605469v6.152344c0 6.25.328124 12.496094.984374 18.714844l15.53125 147.570312h-57.804687v-305.546875zm0 0" fill="#64505a"/><path d="m280.773438 339.5625v6.148438c0 3.132812.085937 6.261718.25 9.386718h-41.539063v-33.03125h42.226563c-.621094 5.804688-.9375 11.648438-.9375 17.496094zm0 0" fill="#ffc250"/><path d="m74.324219 206.453125 21.105469 98.503906c2.4375 11.371094 3.667968 22.972657 3.667968 34.605469v6.152344c0 6.25-.328125 12.496094-.984375 18.714844l-15.53125 147.570312h57.804688v-305.546875zm0 0" fill="#64505a"/><path d="m317.769531 198.195312c7.992188-17.644531 12.554688-37.175781 12.554688-57.808593 0-77.535157-62.855469-140.386719-140.386719-140.386719-77.535156 0-140.386719 62.851562-140.386719 140.386719 0 20.632812 4.558594 40.160156 12.554688 57.804687h255.664062zm0 0" fill="#5a4650"/><path d="m301.421875 173.417969h-4.132813c0-46.769531-66.222656-71.464844-101.429687-108.816407-3.222656-3.421874-8.621094-3.421874-11.847656 0-35.207031 37.347657-101.429688 62.046876-101.429688 108.816407h-4.128906c-11.402344 0-20.644531 9.242187-20.644531 20.644531s9.242187 20.648438 20.644531 20.648438h4.542969c4.230468 55.417968 50.4375 99.09375 106.9375 99.09375 56.503906 0 102.710937-43.675782 106.9375-99.09375h4.546875c11.402343 0 20.644531-9.246094 20.644531-20.648438.003906-11.402344-9.242188-20.644531-20.640625-20.644531zm0 0" fill="#f5b97d"/><path d="m158.289062 227.066406c-3.117187 0-5.542968 2.871094-4.917968 5.929688 3.140625 15.414062 18.316406 27.101562 36.566406 27.101562 18.246094 0 33.421875-11.6875 36.5625-27.101562.621094-3.058594-1.800781-5.929688-4.921875-5.929688zm0 0" fill="#fff"/><path d="m140.386719 198.195312c-4.566407 0-8.257813-3.695312-8.257813-8.257812v-8.257812c0-4.566407 3.695313-8.257813 8.257813-8.257813 4.566406 0 8.257812 3.691406 8.257812 8.257813v8.257812c0 4.5625-3.691406 8.257812-8.257812 8.257812zm0 0" fill="#5a4650"/><path d="m239.484375 198.195312c-4.566406 0-8.257813-3.695312-8.257813-8.257812v-8.257812c0-4.566407 3.695313-8.257813 8.257813-8.257813s8.257813 3.691406 8.257813 8.257813v8.257812c0 4.5625-3.691407 8.257812-8.257813 8.257812zm0 0" fill="#5a4650"/><path d="m132.121094 164.960938c-4.144532 0-7.726563-3.113282-8.203125-7.332032-.507813-4.53125 2.75-8.621094 7.28125-9.136718l16.519531-1.863282c4.578125-.476562 8.621094 2.75 9.136719 7.28125.507812 4.53125-2.75 8.621094-7.285157 9.136719l-16.515624 1.863281c-.3125.035156-.625.050782-.933594.050782zm0 0" fill="#6e5a64"/><path d="m247.75 164.960938c-.304688 0-.621094-.015626-.933594-.050782l-16.515625-1.859375c-4.535156-.519531-7.792969-4.605469-7.285156-9.140625.507813-4.53125 4.542969-7.765625 9.136719-7.28125l16.519531 1.863282c4.53125.515624 7.789063 4.605468 7.28125 9.136718-.476563 4.21875-4.058594 7.332032-8.203125 7.332032zm0 0" fill="#6e5a64"/><path d="m99.097656 339.5625v6.148438c0 3.132812-.082031 6.261718-.246094 9.386718h41.535157v-33.03125h-42.226563c.621094 5.804688.9375 11.648438.9375 17.496094zm0 0" fill="#ffc250"/><path d="m99.070312 338.582031h41.316407v-16.515625h-42.222657c.582032 5.480469.875 10.992188.90625 16.515625zm0 0" fill="#ffd064"/><path d="m239.484375 338.582031h41.316406c.035157-5.523437.324219-11.035156.910157-16.515625h-42.226563zm0 0" fill="#ffd064"/><path d="m115.613281 206.453125v-41.292969c0-13.679687 11.089844-24.773437 24.773438-24.773437h144.773437c-4.332031-5.765625-9.601562-11.230469-15.496094-16.515625h-154.050781v-4.679688c-1.847656 1.542969-4.957031 4.15625-5.324219 4.496094-.316406.292969-2.78125 2.566406-3.09375 2.859375-14.507812 13.636719-24.613281 28.539063-24.613281 46.871094h-2.953125c-10.796875 0-20.640625 7.769531-21.714844 18.515625-1.238281 12.359375 8.433594 22.777344 20.539063 22.777344h4.542969c4.230468 55.417968 50.4375 99.09375 106.9375 99.09375 5.652344 0 11.082031-.421876 16.496094-1.265626-51.453126-7.9375-90.816407-52.410156-90.816407-106.085937zm0 0" fill="#e3aa75"/><path d="m206.453125 445.933594c0 9.121094-7.394531 16.515625-16.515625 16.515625s-16.515625-7.394531-16.515625-16.515625 7.394531-16.515625 16.515625-16.515625 16.515625 7.394531 16.515625 16.515625zm0 0" fill="#ffd064"/><path d="m322.066406 123.871094h-264.257812c-9.125 0-16.519532-7.394532-16.519532-16.515625 0-9.121094 7.398438-16.515625 16.519532-16.515625h264.257812c9.121094 0 16.515625 7.394531 16.515625 16.515625 0 9.121093-7.394531 16.515625-16.515625 16.515625zm0 0" fill="#ffc250"/><path d="m322.066406 90.839844h-206.453125c-4.5625 0-8.257812 3.695312-8.257812 8.257812 0 4.558594 3.695312 8.257813 8.257812 8.257813h222.96875c0-9.121094-7.394531-16.515625-16.515625-16.515625zm0 0" fill="#ffd064"/><path d="m198.195312 454.195312c-9.121093 0-16.515624-7.394531-16.515624-16.515624 0-2.421876.511718-4.726563 1.445312-6.796876-5.734375 2.589844-9.707031 8.351563-9.707031 15.054688 0 9.121094 7.394531 16.515625 16.515625 16.515625 6.703125 0 12.460937-3.972656 15.050781-9.707031-2.070313.933594-4.371094 1.449218-6.789063 1.449218zm0 0" fill="#ffc250"/></svg>