<?xml version="1.0" encoding="iso-8859-1"?>
<!-- Generator: Adobe Illustrator 17.1.0, SVG Export Plug-In . SVG Version: 6.00 Build 0)  -->
<!DOCTYPE svg PUBLIC "-//W3C//DTD SVG 1.1//EN" "http://www.w3.org/Graphics/SVG/1.1/DTD/svg11.dtd">
<svg version="1.1" id="Capa_1" xmlns="http://www.w3.org/2000/svg" xmlns:xlink="http://www.w3.org/1999/xlink" x="0px" y="0px"
	 viewBox="0 0 211.825 211.825" style="enable-background:new 0 0 211.825 211.825;" xml:space="preserve">
<path d="M105.913,211.825c-0.675,0-1.318-0.133-1.905-0.376c-3.238-1.253-48.702-19.298-70.023-51.919
	c-8.68-13.28-12.355-29.509-10.347-45.696l2.609-21.039c0.005-0.047,0.011-0.093,0.017-0.14l9.171-73.947
	c0.133-1.077,0.613-2.08,1.367-2.86L50.648,1.525C51.59,0.55,52.888,0,54.243,0h103.339c1.355,0,2.653,0.55,3.595,1.525
	l13.846,14.324c0.754,0.78,1.234,1.783,1.367,2.86l9.171,73.94c0.007,0.05,0.013,0.101,0.019,0.152l2.608,21.032
	c2.008,16.188-1.667,32.417-10.348,45.697c-21.322,32.621-66.785,50.666-70.023,51.919
	C107.23,211.691,106.587,211.825,105.913,211.825z M110.913,147.128v52.092c13.422-6.183,43.364-21.915,58.558-45.161l0,0
	c1.45-2.218,2.736-4.535,3.853-6.931H110.913z M38.501,147.128c1.117,2.396,2.403,4.712,3.854,6.931
	c15.192,23.244,45.133,38.977,58.558,45.161v-52.092H38.501z M34.931,137.128h141.962c1.813-7.087,2.3-14.576,1.371-22.064
	l-2.074-16.717H35.634l-2.073,16.717C32.632,122.552,33.119,130.041,34.931,137.128z M110.913,88.347h64.038l-8.279-66.749
	L155.461,10h-44.548V88.347z M36.874,88.347h64.039V10H56.364L45.153,21.598L36.874,88.347z"/>
<g>
</g>
<g>
</g>
<g>
</g>
<g>
</g>
<g>
</g>
<g>
</g>
<g>
</g>
<g>
</g>
<g>
</g>
<g>
</g>
<g>
</g>
<g>
</g>
<g>
</g>
<g>
</g>
<g>
</g>
</svg>
