<svg height="512pt" viewBox="-42 0 512 512" width="512pt" xmlns="http://www.w3.org/2000/svg"><path d="m427.820312 201.578125v302.800781c0 3.949219-3.601562 6.917969-7.476562 6.164063l-50.703125-9.871094-48.765625-9.5-106.964844 20.828125-36.703125-7.148438-70.261719-13.679687-29.296874 5.714844-70.167969 13.65625c-3.878907.753906-7.480469-2.214844-7.480469-6.164063v-302.800781c0-3.003906 2.128906-5.589844 5.078125-6.164063l66.308594-12.914062 35.558593-6.921875 106.964844 20.828125 106.964844-20.828125 41.855469 8.148437 60.011719 11.6875c2.949218.574219 5.078124 3.160157 5.078124 6.164063zm0 0" fill="#1a94fa"/><path d="m321.617188 175.71875v315.597656l48.023437 9.355469 50.703125 9.871094c3.875.753906 7.476562-2.214844 7.476562-6.164063v-302.800781c0-3.003906-2.128906-5.589844-5.078124-6.164063l-60.011719-11.6875zm0 0" fill="#097ece"/><path d="m213.023438 196.230469-106.078126-20.652344-.324218.0625v315.59375l.324218-.0625 70.261719 13.679687 35.816407 6.976563zm0 0" fill="#097ece"/><path d="m402.03125 217.65625v263.046875l-81.15625-15.804687-106.964844 20.828124-106.964844-20.828124-81.15625 15.804687v-263.046875l81.15625-15.804688 106.964844 20.828126 106.964844-20.828126zm0 0" fill="#fed974"/><path d="m321.621094 201.996094v65.144531c-24.75 0-44.804688-20.054687-44.804688-44.800781v-11.90625l44.058594-8.582032zm0 0" fill="#f64446"/><path d="m321.617188 465.039062 80.414062 15.660157v-263.042969l-80.414062-15.660156zm0 0" fill="#fcc53a"/><path d="m106.621094 201.914062v263.046876l.324218-.0625 106.078126 20.652343v-263.042969l-106.078126-20.65625zm0 0" fill="#fcc53a"/><path d="m402.03125 318.894531v28.265625l-25.832031-8.570312v137.085937l-26.964844-5.25v-140.78125l-28.089844-9.3125-104.757812 27.117188c-1.105469.289062-2.238281.433593-3.363281.433593-1.453126 0-2.910157-.234374-4.3125-.710937l-22.445313-7.613281-15.878906 54.148437 42.121093 14.433594v27.367187c-.175781.011719-.339843.03125-.515624.03125-1.453126 0-2.910157-.238281-4.3125-.710937l-101.746094-34.871094-80.144532 18.664063v-27.542969l77.792969-18.117187c2.433594-.566407 4.984375-.441407 7.34375.363281l34.066407 11.675781 15.855468-54.066406-54.914062-18.640625-80.144532 18.664062v-27.535156l77.792969-18.113281c2.433594-.570313 4.984375-.445313 7.34375.359375l102.613281 34.816406 104.71875-27.109375c2.496094-.648438 5.125-.566406 7.582032.246094zm0 0" fill="#92e174"/><path d="m110.925781 285.667969c-1.390625-.472657-2.84375-.703125-4.304687-.703125v27.5625l54.226562 18.40625-15.855468 54.066406-34.066407-11.675781c-1.390625-.476563-2.84375-.707031-4.304687-.707031v27.578124l101.058594 34.628907c1.402343.476562 2.859374.714843 4.3125.714843.175781 0 .339843-.023437.515624-.03125v-27.371093l-42.121093-14.429688 15.878906-54.148437 22.445313 7.613281c1.402343.472656 2.859374.710937 4.3125.710937v-27.574218zm0 0" fill="#61d630"/><path d="m321.617188 292.949219v27.539062l27.617187 9.15625v140.773438l26.964844 5.253906v-137.082031l25.832031 8.570312v-28.265625l-76.191406-25.273437c-1.371094-.453125-2.796875-.671875-4.222656-.671875zm0 0" fill="#61d630"/><path d="m271.773438 443.277344c-4.273438 0-7.734376-3.460938-7.734376-7.734375v-39.117188c0-4.273437 3.460938-7.738281 7.734376-7.738281 4.273437 0 7.738281 3.464844 7.738281 7.738281v39.117188c0 4.273437-3.464844 7.734375-7.738281 7.734375zm0 0" fill="#deeffe"/><path d="m159.03125 309.726562c-4.273438 0-7.738281-3.464843-7.738281-7.738281v-41.546875c0-4.273437 3.464843-7.738281 7.738281-7.738281s7.734375 3.464844 7.734375 7.738281v41.546875c0 4.273438-3.460937 7.738281-7.734375 7.738281zm0 0" fill="#deeffe"/><g fill="#f64446"><path d="m174.855469 253.308594c0 8.738281-7.085938 15.824218-15.824219 15.824218-8.742188 0-15.824219-7.085937-15.824219-15.824218 0-8.742188 7.082031-15.824219 15.824219-15.824219 8.738281 0 15.824219 7.082031 15.824219 15.824219zm0 0"/><path d="m271.773438 367.667969c11.472656 0 20.777343 9.296875 20.777343 20.777343 0 11.472657-9.304687 20.765626-20.777343 20.765626-11.472657 0-20.777344-9.292969-20.777344-20.765626 0-11.480468 9.304687-20.777343 20.777344-20.777343zm0 0"/><path d="m213.023438 0c-46.617188 0-84.414063 37.796875-84.414063 84.414062 0 39.308594 59.988281 93.886719 78.824219 110.054688 3.21875 2.761719 7.960937 2.761719 11.179687 0 18.835938-16.167969 78.824219-70.746094 78.824219-110.054688 0-46.617187-37.796875-84.414062-84.414062-84.414062zm.96875 133.613281c-26.6875 0-48.320313-21.632812-48.320313-48.332031 0-26.6875 21.632813-48.320312 48.320313-48.320312s48.332031 21.632812 48.332031 48.320312c0 26.699219-21.644531 48.332031-48.332031 48.332031zm0 0"/></g><path d="m217.917969 133.441406c-1.292969.101563-2.601563.171875-3.925781.171875-26.6875 0-48.320313-21.632812-48.320313-48.332031 0-25.898438 20.375-47.035156 45.972656-48.261719 8.8125-12.960937 21.148438-23.328125 35.617188-29.761719-10.46875-4.652343-22.046875-7.257812-34.238281-7.257812-46.617188 0-84.414063 37.796875-84.414063 84.414062 0 39.308594 59.988281 93.886719 78.824219 110.054688 3.21875 2.761719 7.960937 2.761719 11.179687 0 6.25-5.363281 17.03125-14.960938 28.648438-26.824219-9.941407-10.148437-20.492188-21.960937-29.34375-34.203125zm0 0" fill="#e01e31"/></svg>