<?xml version="1.0" encoding="iso-8859-1"?>
<!-- Generator: Adobe Illustrator 19.0.0, SVG Export Plug-In . SVG Version: 6.00 Build 0)  -->
<svg version="1.1" id="Capa_1" xmlns="http://www.w3.org/2000/svg" xmlns:xlink="http://www.w3.org/1999/xlink" x="0px" y="0px"
	 viewBox="0 0 512 512" style="enable-background:new 0 0 512 512;" xml:space="preserve">
<path style="fill:#6D5248;" d="M397.592,18.008C391.701,2.254,376.157-2.085,359.935,1l0.001-0.001
	C298.391,12.102,222.948,12.478,160.933,2.55c-0.822-0.132-1.646-0.261-2.462-0.396c-2.26-0.374-4.501-0.756-6.711-1.155L151.761,1
	c-1.216,0.049-28.835-6.583-37.658,17.008C44.679,226.282,120.859,512,255.848,512C387.301,512,469.187,232.612,397.592,18.008z"/>
<path style="fill:#60433A;" d="M131.956,51.314c0.017-0.07,0.035-0.14,0.052-0.21c0.807-3.196,1.639-6.363,2.499-9.5
	c0.012-0.047,0.026-0.093,0.038-0.14c1.737-6.331,3.581-12.538,5.527-18.611c0.002-0.006,0.004-0.012,0.006-0.018
	c0.254-0.716,0.508-1.502,0.762-2.369c0.147-0.452,0.3-0.899,0.448-1.349c0.123-0.369,0.246-0.74,0.369-1.109
	c3.4-9.091,9.648-13.721,16.089-15.979c-2.012-0.335-4.016-0.675-5.988-1.03L151.762,1c-1.216,0.049-28.835-6.583-37.658,17.008
	C44.163,227.83,121.672,512,255.848,512c4.64,0,9.233-0.376,13.777-1.082C151.627,492.594,81.513,251.542,131.956,51.314z"/>
<g>
	<ellipse style="fill:#EAEAEA;" cx="334.53" cy="163.4" rx="50.49" ry="17.19"/>
	<ellipse style="fill:#EAEAEA;" cx="177.16" cy="163.4" rx="50.49" ry="17.19"/>
</g>
<g>
	<path style="fill:#D1D1D1;" d="M153.009,163.286c0-8.303,13.917-15.231,32.42-16.836c-27.116-1.52-58.751,5.209-58.751,16.954
		c0,11.781,31.931,18.799,60.473,16.849C167.798,178.94,153.009,171.845,153.009,163.286z"/>
	<path style="fill:#D1D1D1;" d="M310.375,163.286c0-8.303,13.917-15.231,32.42-16.836c-27.116-1.52-58.751,5.209-58.751,16.954
		c0,9.492,22.604,17.187,50.487,17.187c3.419,0,6.758-0.117,9.986-0.338C325.164,178.94,310.375,171.845,310.375,163.286z"/>
</g>
<g>
	<path style="fill:#84665D;" d="M345.175,217.135c-15.845,0-32.837-3.381-47.213-9.112c-3.964-1.579-5.896-6.073-4.317-10.037
		c1.58-3.964,6.071-5.898,10.038-4.317c18.998,7.572,48.939,11.816,66.368,3.59c3.855-1.822,8.462-0.171,10.284,3.689
		c1.821,3.858,0.17,8.463-3.689,10.284C368.373,215.139,357.377,217.135,345.175,217.135z"/>
	<path style="fill:#84665D;" d="M136.581,211.233c-3.859-1.821-5.51-6.426-3.689-10.284c1.821-3.86,6.425-5.512,10.284-3.689
		c17.252,8.142,47.053,4.108,66.368-3.59c3.966-1.579,8.458,0.353,10.037,4.317c1.579,3.964-0.353,8.457-4.317,10.037
		C192.05,217.277,158.014,221.351,136.581,211.233z"/>
</g>
<path style="fill:#91746D;" d="M292.297,260.843c-16.148-33.879-19.705-67.745-36.448-67.745s-20.3,33.866-36.448,67.745
	c-22.99,48.233,8.252,24.793,15.326,39.217c7.146,14.57,21.122,13.974,21.122,13.974s13.976,0.596,21.122-13.974
	C284.044,285.635,315.286,309.076,292.297,260.843z"/>
<path style="fill:#84665D;" d="M253.603,278.302c3.774-38.715-3.907-73.256,9.317-82.779c-2.095-1.569-4.417-2.426-7.072-2.426
	c-16.743,0-20.3,33.866-36.448,67.745c-22.99,48.233,8.252,24.793,15.326,39.217c7.146,14.57,21.122,13.974,21.122,13.974
	s2.226,0.092,5.352-0.718C254.862,312.958,250.848,306.566,253.603,278.302z"/>
<g>
	<path style="fill:#EAEAEA;" d="M320.682,255.062c-4.611,0-6.373-3.289-7.943-5.81c-2.257-3.62-1.151-8.386,2.47-10.643
		c3.621-2.255,8.387-1.151,10.643,2.471c0.428,0.685,0.864,1.371,1.31,2.059c2.318,3.582,1.293,8.366-2.29,10.683
		C323.575,254.661,322.121,255.062,320.682,255.062z"/>
	<path style="fill:#EAEAEA;" d="M358.821,298.915c-1.453-1.069-2.916-2.183-4.348-3.309c-3.354-2.638-3.936-7.494-1.299-10.848
		c2.638-3.355,7.496-3.935,10.848-1.3c1.305,1.026,2.637,2.04,3.959,3.013c3.436,2.53,4.171,7.366,1.642,10.802
		C367.098,300.704,362.265,301.45,358.821,298.915z M340.023,279.637c-4.03,0-5.802-2.509-9.3-6.446
		c-2.833-3.19-2.545-8.073,0.646-10.907c3.189-2.834,8.073-2.545,10.907,0.646c1.108,1.246,2.241,2.487,3.369,3.684
		C350.28,271.534,346.751,279.637,340.023,279.637z"/>
	<path style="fill:#EAEAEA;" d="M387.955,315.194c-2.052,0-3.283-0.706-5.753-1.938c-3.82-1.9-5.375-6.539-3.474-10.358
		s6.538-5.378,10.359-3.474c0.725,0.36,1.453,0.714,2.185,1.061c3.855,1.829,5.498,6.437,3.669,10.292
		C393.62,313.563,390.847,315.194,387.955,315.194z"/>
	<path style="fill:#EAEAEA;" d="M188.415,253.822c-3.582-2.318-4.607-7.101-2.29-10.683c0.446-0.689,0.883-1.376,1.312-2.063
		c2.258-3.618,7.023-4.724,10.644-2.465c3.62,2.259,4.724,7.025,2.465,10.644c-0.473,0.759-0.955,1.516-1.448,2.278
		C196.793,255.096,192.016,256.151,188.415,253.822z"/>
	<path style="fill:#EAEAEA;" d="M143.663,297.274c-2.53-3.436-1.795-8.272,1.642-10.802c1.322-0.973,2.654-1.987,3.959-3.013
		c3.354-2.637,8.212-2.056,10.848,1.3c2.637,3.354,2.056,8.211-1.299,10.848c-1.432,1.126-2.896,2.239-4.348,3.309
		C151.028,301.446,146.193,300.71,143.663,297.274z M167.968,277.535c-3.106-2.925-3.252-7.815-0.326-10.921
		c1.128-1.197,2.262-2.437,3.369-3.684c2.833-3.191,7.717-3.48,10.907-0.646s3.479,7.717,0.646,10.907
		c-1.207,1.359-2.444,2.711-3.674,4.018C175.974,280.303,171.084,280.471,167.968,277.535z"/>
	<path style="fill:#EAEAEA;" d="M125.331,315.194c-8.223,0-10.724-11.197-3.315-14.709c0.732-0.347,1.46-0.7,2.184-1.06
		c3.82-1.901,8.458-0.345,10.359,3.474c1.901,3.82,0.346,8.458-3.474,10.358C128.833,314.377,127.471,315.194,125.331,315.194z"/>
</g>
<path style="fill:#F2D59F;" d="M319.374,377.624L319.374,377.624L319.374,377.624c-4.962-3.263-10.315-7.421-14.681-12.352
	c-11.495-12.982-34.05-22.056-48.845-5.346c-14.795-16.71-37.35-7.637-48.845,5.346c-6.046,6.829-12.473,10.747-16.171,13.313
	c-0.295,0.186-0.589,0.372-0.88,0.552c-2.279,1.58-7.632,6.403,0.88,12.514l0,0c5.759,3.413,12.839,8.774,20.256,17.151
	c17.932,20.253,44.76,16.801,44.76,16.801s26.828,3.452,44.76-16.801c6.788-7.666,13.295-12.808,18.765-16.242
	C324.725,387.208,325.392,381.586,319.374,377.624z"/>
<path style="fill:#EDBF77;" d="M190.832,391.652L190.832,391.652c5.759,3.413,12.839,8.774,20.256,17.151
	c17.932,20.253,44.76,16.801,44.76,16.801s26.828,3.452,44.76-16.801c6.788-7.666,13.295-12.808,18.765-16.242
	c3.388-3.388,4.38-6.243,4.251-8.522H186.272C185.88,386.148,186.798,388.755,190.832,391.652z"/>
<path style="fill:#E83D3D;" d="M211.346,8.19L211.346,8.19C192.024,6.878,171.522,4.562,151.761,1l0,0
	c-1.286,0.048-28.608-6.508-37.544,16.73c-7.121,21.315-12.409,42.376-16.616,64.727c92.98,22.539,223.336,22.581,316.495,0
	c-4.092-21.772-9.399-43.119-16.616-64.727C391.507,2.201,376.032-2.062,359.935,1l0.001-0.001
	c-28.035,5.058-57.647,7.705-86.852,8.458l0,0C251.548,10.007,229.812,9.488,211.346,8.19z"/>
<path style="fill:#BC3B3B;" d="M114.217,17.731c-7.458,22.327-12.397,42.587-16.616,64.726c8.443,2.047,17.31,3.932,26.544,5.645
	c2.212-12.583,4.616-24.11,7.81-36.788c0.017-0.07,0.035-0.14,0.052-0.21c0.807-3.196,1.639-6.363,2.499-9.5
	c0.012-0.047,0.026-0.093,0.038-0.14c1.737-6.331,3.581-12.538,5.527-18.611c0.002-0.006,0.004-0.012,0.006-0.018
	c0.254-0.716,0.508-1.502,0.762-2.369c0.147-0.452,0.3-0.899,0.448-1.349c0.123-0.369,0.246-0.74,0.369-1.109
	c3.4-9.091,9.648-13.721,16.089-15.979c-2.012-0.335-4.016-0.675-5.988-1.03L151.762,1l0,0l0,0
	C120.337-4.932,114.631,17.444,114.217,17.731z"/>
<path style="fill:#F6B138;" d="M397.479,17.73C391.507,2.201,376.032-2.062,359.935,1l0.001-0.001
	c-63.536,11.462-143.36,11.682-208.175,0V1c-1.286,0.048-28.608-6.508-37.544,16.73c-1.793,5.366-2.743,8.363-4.73,15.068
	c87.756,18.887,204.278,19.035,292.723,0C400.094,25.663,399.119,22.641,397.479,17.73z"/>
<path style="fill:#EDA024;" d="M114.217,17.731c-1.541,4.613-2.594,7.858-4.73,15.067c8.36,1.799,17.092,3.442,26.126,4.93
	c1.426-5.033,2.901-10.009,4.46-14.875c0.002-0.006,0.004-0.012,0.006-0.018c0.254-0.716,0.508-1.502,0.762-2.369
	c0.147-0.452,0.3-0.899,0.448-1.349c0.123-0.369,0.246-0.74,0.369-1.109c3.4-9.091,9.648-13.721,16.089-15.979
	c-2.012-0.335-4.016-0.675-5.988-1.03L151.762,1l0,0l0,0C120.337-4.932,114.631,17.444,114.217,17.731z"/>
<path style="fill:#F2902F;" d="M374.833,37.93c-5.051,0.822-10.191,1.597-15.432,2.315l-14.55,37.099l-22.766-33.027
	c-5.516,0.457-11.093,0.868-16.749,1.211l-17.116,36.92L264.677,46.96c-6.502,0.069-11.069,0.075-18.063-0.002L223.07,82.449
	l-17.128-36.946c-5.644-0.346-11.211-0.757-16.716-1.216l-22.787,33.058l-14.572-37.156c-5.217-0.719-10.331-1.495-15.359-2.316
	L97.693,81.949c-0.053,0.282-0.093,0.508-0.093,0.508c5.467,1.325,11.109,2.584,16.915,3.771l26.851-30.492l14.662,37.385
	c5.544,0.726,11.192,1.391,16.926,1.997l23.292-33.791l17.131,36.952c5.694,0.294,11.451,0.529,17.265,0.705l25.003-37.688
	l25.01,37.7c5.808-0.173,11.559-0.405,17.248-0.696l17.141-36.973l23.319,33.831c5.717-0.602,11.348-1.262,16.877-1.983
	l14.684-37.44l26.912,30.561c5.903-1.203,11.639-2.479,17.193-3.824C413.651,81.993,386.42,51.095,374.833,37.93z"/>
<g>
</g>
<g>
</g>
<g>
</g>
<g>
</g>
<g>
</g>
<g>
</g>
<g>
</g>
<g>
</g>
<g>
</g>
<g>
</g>
<g>
</g>
<g>
</g>
<g>
</g>
<g>
</g>
<g>
</g>
</svg>
