<svg height="464pt" viewBox="0 -40 464 464" width="464pt" xmlns="http://www.w3.org/2000/svg"><path d="m448 336v-304h-432v304h-16v48h464v-48zm0 0" fill="#d1d4d6"/><path d="m48 112h144v272h-144zm0 0" fill="#3e8cc7"/><path d="m0 0h464v32h-464zm0 0" fill="#d1d4d6"/><path d="m256 112h32v80h-32zm0 0" fill="#60bad1"/><path d="m192 112h32v80h-32zm0 0" fill="#60bad1"/><path d="m320 112h32v80h-32zm0 0" fill="#60bad1"/><path d="m384 112h32v80h-32zm0 0" fill="#60bad1"/><path d="m224 112h32v80h-32zm0 0" fill="#4398d1"/><path d="m352 112h32v80h-32zm0 0" fill="#4398d1"/><path d="m288 112h32v80h-32zm0 0" fill="#4398d1"/><path d="m416 112h32v80h-32zm0 0" fill="#4398d1"/><path d="m416 192h32v32h-32zm0 0" fill="#3c89bd"/><path d="m224 192h32v32h-32zm0 0" fill="#3c89bd"/><path d="m352 192h32v32h-32zm0 0" fill="#3c89bd"/><path d="m288 192h32v32h-32zm0 0" fill="#3c89bd"/><path d="m192 192h32v32h-32zm0 0" fill="#58aabf"/><path d="m384 192h32v32h-32zm0 0" fill="#58aabf"/><path d="m256 192h32v32h-32zm0 0" fill="#58aabf"/><path d="m320 192h32v32h-32zm0 0" fill="#58aabf"/><path d="m224 224h192v112h-192zm0 0" fill="#87ced9"/><path d="m282.347656 306.339844 51.996094-52 11.3125 11.316406-51.996094 51.996094zm0 0" fill="#b8dfe6"/><path d="m274.34375 274.34375 24-24.003906 11.3125 11.316406-24 24zm0 0" fill="#b8dfe6"/><path d="m322.34375 306.339844 24-24 11.316406 11.3125-24.003906 24.003906zm0 0" fill="#b8dfe6"/><path d="m80 224h80v160h-80zm0 0" fill="#87ced9"/><path d="m80 352v32h80v-112zm0 0" fill="#71c4d1"/><path d="m80 144h80v48h-80zm0 0" fill="#87ced9"/><path d="m120 296h16v32h-16zm0 0" fill="#b8dfe6"/><g fill="#c3c5c7"><path d="m192 224h32v24h-32zm0 0"/><path d="m416 224h32v24h-32zm0 0"/><path d="m72 56h32v16h-32zm0 0"/><path d="m104 72h32v16h-32zm0 0"/><path d="m184 64h32v16h-32zm0 0"/><path d="m304 72h32v16h-32zm0 0"/><path d="m368 56h32v16h-32zm0 0"/></g><path d="m224 224h192v24h-192zm0 0" fill="#71c4d1"/><path d="m16 32h432v16h-432zm0 0" fill="#c3c5c7"/></svg>